<svg width="22" height="23" viewBox="0 0 22 23" fill="none" xmlns="http://www.w3.org/2000/svg">
<path d="M11.9261 3.17671L17.3344 5.57838C18.8927 6.26588 18.8927 7.40254 17.3344 8.09004L11.9261 10.4917C11.3119 10.7667 10.3036 10.7667 9.68939 10.4917L4.28105 8.09004C2.72272 7.40254 2.72272 6.26588 4.28105 5.57838L9.68939 3.17671C10.3036 2.90171 11.3119 2.90171 11.9261 3.17671Z" stroke="black" stroke-width="1.5" stroke-linecap="round" stroke-linejoin="round"/>
<path d="M2.75 10.5833C2.75 11.3533 3.3275 12.2424 4.03333 12.5541L10.2575 15.3224C10.7342 15.5333 11.275 15.5333 11.7425 15.3224L17.9667 12.5541C18.6725 12.2424 19.25 11.3533 19.25 10.5833" stroke="black" stroke-width="1.5" stroke-linecap="round" stroke-linejoin="round"/>
<path d="M2.75 15.1667C2.75 16.0192 3.25417 16.7892 4.03333 17.1376L10.2575 19.9059C10.7342 20.1167 11.275 20.1167 11.7425 19.9059L17.9667 17.1376C18.7458 16.7892 19.25 16.0192 19.25 15.1667" stroke="black" stroke-width="1.5" stroke-linecap="round" stroke-linejoin="round"/>
</svg>
