<svg width="22" height="22" viewBox="0 0 22 22" fill="none" xmlns="http://www.w3.org/2000/svg">
<path d="M5.014 8.24992C6.78591 8.24992 8.22233 6.8135 8.22233 5.04159C8.22233 3.26967 6.78591 1.83325 5.014 1.83325C3.24208 1.83325 1.80566 3.26967 1.80566 5.04159C1.80566 6.8135 3.24208 8.24992 5.014 8.24992Z" stroke="#525865" stroke-width="1.5"/>
<path d="M15.556 13.75H18.306C19.3143 13.75 20.1393 14.575 20.1393 15.5833V18.3333C20.1393 19.3417 19.3143 20.1667 18.306 20.1667H15.556C14.5477 20.1667 13.7227 19.3417 13.7227 18.3333V15.5833C13.7227 14.575 14.5477 13.75 15.556 13.75Z" stroke="#525865" stroke-width="1.5"/>
<path d="M11.0001 4.58325H13.4567C15.1526 4.58325 15.9409 6.68242 14.6667 7.80075L7.34255 14.2083C6.06838 15.3174 6.85672 17.4166 8.54338 17.4166H11.0001" stroke="#525865" stroke-width="1.5" stroke-linecap="round" stroke-linejoin="round"/>
<path d="M5.02891 5.04159H5.0395" stroke="#525865" stroke-width="2" stroke-linecap="round" stroke-linejoin="round"/>
<path d="M16.9459 16.9583H16.9565" stroke="#525865" stroke-width="2" stroke-linecap="round" stroke-linejoin="round"/>
</svg>
