<svg width="779" height="197" viewBox="0 0 779 197" fill="none" xmlns="http://www.w3.org/2000/svg">
<mask id="path-1-outside-1_122_712" maskUnits="userSpaceOnUse" x="0" y="0" width="779" height="197" fill="black">
<rect fill="white" width="779" height="197"/>
<path d="M0 1H779V196H0V1Z"/>
</mask>
<path d="M0 2H779V0H0V2ZM779 195H0V197H779V195Z" fill="#E8E8E8" mask="url(#path-1-outside-1_122_712)"/>
<mask id="path-3-inside-2_122_712" fill="white">
<path d="M0 1H188V48H0V1Z"/>
</mask>
<path d="M187 1V48H189V1H187Z" fill="#E8E8E8" mask="url(#path-3-inside-2_122_712)"/>
<path d="M20.9787 30H19.348L23.0121 19.8182H24.7869L28.451 30H26.8203L23.9418 21.6676H23.8622L20.9787 30ZM21.2521 26.0128H26.5419V27.3054H21.2521V26.0128ZM32.6156 30.1541C31.8765 30.1541 31.2401 29.9867 30.7065 29.652C30.1762 29.3139 29.7685 28.8482 29.4835 28.255C29.1985 27.6617 29.0559 26.9822 29.0559 26.2166C29.0559 25.4411 29.2018 24.7566 29.4934 24.1634C29.7851 23.5668 30.1961 23.1011 30.7264 22.7663C31.2567 22.4316 31.8815 22.2642 32.6007 22.2642C33.1807 22.2642 33.6977 22.3719 34.1518 22.5874C34.6059 22.7995 34.9721 23.0978 35.2505 23.4822C35.5323 23.8667 35.6996 24.3158 35.7527 24.8295H34.3059C34.2264 24.4716 34.0441 24.1634 33.7591 23.9048C33.4773 23.6463 33.0995 23.517 32.6255 23.517C32.2112 23.517 31.8483 23.6264 31.5368 23.8452C31.2285 24.0606 30.9882 24.3688 30.8159 24.7699C30.6435 25.1676 30.5574 25.6383 30.5574 26.1818C30.5574 26.7386 30.6419 27.2192 30.8109 27.6236C30.9799 28.0279 31.2186 28.3411 31.5268 28.5632C31.8384 28.7853 32.2046 28.8963 32.6255 28.8963C32.9073 28.8963 33.1625 28.8449 33.3912 28.7422C33.6232 28.6361 33.8171 28.4853 33.9728 28.2898C34.1319 28.0942 34.243 27.8589 34.3059 27.5838H35.7527C35.6996 28.0777 35.5389 28.5185 35.2704 28.9062C35.002 29.294 34.6423 29.599 34.1916 29.821C33.7441 30.0431 33.2188 30.1541 32.6156 30.1541ZM40.627 22.3636V23.5568H36.4558V22.3636H40.627ZM37.5744 20.5341H39.0609V27.7578C39.0609 28.0462 39.104 28.2633 39.1902 28.4091C39.2764 28.5516 39.3874 28.6494 39.5233 28.7024C39.6625 28.7521 39.8133 28.777 39.9757 28.777C40.095 28.777 40.1994 28.7687 40.2889 28.7521C40.3784 28.7356 40.448 28.7223 40.4977 28.7124L40.7662 29.9403C40.68 29.9735 40.5574 30.0066 40.3983 30.0398C40.2392 30.0762 40.0403 30.0961 39.8017 30.0994C39.4106 30.1061 39.046 30.0365 38.7079 29.8906C38.3699 29.7448 38.0964 29.5194 37.8876 29.2145C37.6788 28.9096 37.5744 28.5268 37.5744 28.0661V20.5341ZM41.9913 30V22.3636H43.4778V30H41.9913ZM42.742 21.1854C42.4835 21.1854 42.2614 21.0992 42.0758 20.9268C41.8935 20.7512 41.8024 20.5424 41.8024 20.3004C41.8024 20.0552 41.8935 19.8464 42.0758 19.674C42.2614 19.4983 42.4835 19.4105 42.742 19.4105C43.0006 19.4105 43.221 19.4983 43.4033 19.674C43.5889 19.8464 43.6817 20.0552 43.6817 20.3004C43.6817 20.5424 43.5889 20.7512 43.4033 20.9268C43.221 21.0992 43.0006 21.1854 42.742 21.1854ZM51.7303 22.3636L48.9611 30H47.3702L44.5961 22.3636H46.192L48.1259 28.2401H48.2055L50.1344 22.3636H51.7303ZM52.8473 30V22.3636H54.3338V30H52.8473ZM53.598 21.1854C53.3395 21.1854 53.1175 21.0992 52.9319 20.9268C52.7496 20.7512 52.6584 20.5424 52.6584 20.3004C52.6584 20.0552 52.7496 19.8464 52.9319 19.674C53.1175 19.4983 53.3395 19.4105 53.598 19.4105C53.8566 19.4105 54.077 19.4983 54.2593 19.674C54.4449 19.8464 54.5377 20.0552 54.5377 20.3004C54.5377 20.5424 54.4449 20.7512 54.2593 20.9268C54.077 21.0992 53.8566 21.1854 53.598 21.1854ZM59.6183 22.3636V23.5568H55.4471V22.3636H59.6183ZM56.5657 20.5341H58.0522V27.7578C58.0522 28.0462 58.0953 28.2633 58.1815 28.4091C58.2677 28.5516 58.3787 28.6494 58.5146 28.7024C58.6538 28.7521 58.8046 28.777 58.967 28.777C59.0863 28.777 59.1907 28.7687 59.2802 28.7521C59.3697 28.7356 59.4393 28.7223 59.489 28.7124L59.7575 29.9403C59.6713 29.9735 59.5487 30.0066 59.3896 30.0398C59.2305 30.0762 59.0316 30.0961 58.793 30.0994C58.4019 30.1061 58.0373 30.0365 57.6993 29.8906C57.3612 29.7448 57.0878 29.5194 56.8789 29.2145C56.6701 28.9096 56.5657 28.5268 56.5657 28.0661V20.5341ZM61.9223 32.8636C61.7002 32.8636 61.498 32.8454 61.3157 32.8089C61.1335 32.7758 60.9976 32.7393 60.9081 32.6996L61.266 31.4815C61.5378 31.5545 61.7798 31.5859 61.9919 31.576C62.204 31.5661 62.3913 31.4865 62.5537 31.3374C62.7194 31.1882 62.8652 30.9446 62.9912 30.6065L63.1751 30.0994L60.3811 22.3636H61.972L63.9059 28.2898H63.9855L65.9194 22.3636H67.5153L64.3683 31.0192C64.2225 31.4169 64.0369 31.7533 63.8115 32.0284C63.5861 32.3068 63.3176 32.5156 63.0061 32.6548C62.6945 32.794 62.3333 32.8636 61.9223 32.8636Z" fill="#525865"/>
<g clip-path="url(#clip0_122_712)">
<rect x="188" y="1" width="185" height="20" fill="#F7F8FA"/>
<path d="M266.202 15L264.213 7.72727H265.108L266.628 13.6506H266.699L268.247 7.72727H269.241L270.79 13.6506H270.861L272.381 7.72727H273.276L271.287 15H270.378L268.773 9.20455H268.716L267.111 15H266.202ZM275.838 15.1136C275.313 15.1136 274.859 14.9976 274.478 14.7656C274.099 14.5312 273.807 14.2045 273.601 13.7855C273.398 13.3641 273.296 12.8741 273.296 12.3153C273.296 11.7566 273.398 11.2642 273.601 10.8381C273.807 10.4096 274.094 10.0758 274.461 9.83665C274.83 9.59517 275.261 9.47443 275.753 9.47443C276.037 9.47443 276.318 9.52178 276.595 9.61648C276.872 9.71117 277.124 9.86506 277.351 10.0781C277.578 10.2888 277.76 10.5682 277.894 10.9162C278.029 11.2642 278.097 11.6927 278.097 12.2017V12.5568H273.892V11.8324H277.245C277.245 11.5246 277.183 11.25 277.06 11.0085C276.939 10.767 276.766 10.5765 276.541 10.4368C276.319 10.2971 276.056 10.2273 275.753 10.2273C275.419 10.2273 275.13 10.3101 274.887 10.4759C274.645 10.6392 274.459 10.8523 274.329 11.1151C274.199 11.3778 274.134 11.6596 274.134 11.9602V12.4432C274.134 12.8551 274.205 13.2043 274.347 13.4908C274.491 13.7749 274.691 13.9915 274.947 14.1406C275.203 14.2874 275.5 14.3608 275.838 14.3608C276.059 14.3608 276.257 14.33 276.435 14.2685C276.615 14.2045 276.77 14.1098 276.9 13.9844C277.03 13.8565 277.131 13.6979 277.202 13.5085L278.012 13.7358C277.926 14.0104 277.783 14.2519 277.582 14.4602C277.381 14.6662 277.132 14.8272 276.836 14.9432C276.54 15.0568 276.208 15.1136 275.838 15.1136ZM281.459 15.1136C280.933 15.1136 280.48 14.9976 280.099 14.7656C279.72 14.5312 279.427 14.2045 279.221 13.7855C279.018 13.3641 278.916 12.8741 278.916 12.3153C278.916 11.7566 279.018 11.2642 279.221 10.8381C279.427 10.4096 279.714 10.0758 280.081 9.83665C280.45 9.59517 280.881 9.47443 281.373 9.47443C281.658 9.47443 281.938 9.52178 282.215 9.61648C282.492 9.71117 282.744 9.86506 282.971 10.0781C283.199 10.2888 283.38 10.5682 283.515 10.9162C283.65 11.2642 283.717 11.6927 283.717 12.2017V12.5568H279.513V11.8324H282.865C282.865 11.5246 282.803 11.25 282.68 11.0085C282.56 10.767 282.387 10.5765 282.162 10.4368C281.939 10.2971 281.676 10.2273 281.373 10.2273C281.04 10.2273 280.751 10.3101 280.507 10.4759C280.265 10.6392 280.08 10.8523 279.949 11.1151C279.819 11.3778 279.754 11.6596 279.754 11.9602V12.4432C279.754 12.8551 279.825 13.2043 279.967 13.4908C280.112 13.7749 280.312 13.9915 280.567 14.1406C280.823 14.2874 281.12 14.3608 281.459 14.3608C281.679 14.3608 281.878 14.33 282.055 14.2685C282.235 14.2045 282.39 14.1098 282.52 13.9844C282.651 13.8565 282.751 13.6979 282.822 13.5085L283.632 13.7358C283.547 14.0104 283.404 14.2519 283.202 14.4602C283.001 14.6662 282.752 14.8272 282.457 14.9432C282.161 15.0568 281.828 15.1136 281.459 15.1136ZM285.573 13.0114L285.559 11.9744H285.73L288.116 9.54545H289.153L286.61 12.1165H286.539L285.573 13.0114ZM284.792 15V7.72727H285.63V15H284.792ZM288.258 15L286.127 12.3011L286.724 11.7188L289.323 15H288.258ZM295.187 7.72727V15H294.306V8.65057H294.263L292.488 9.82955V8.93466L294.306 7.72727H295.187Z" fill="#525865"/>
<rect x="188" y="21" width="37" height="27" fill="#F7F8FA"/>
<path d="M206.972 30.2727V39H205.915V31.3807H205.864L203.733 32.7955V31.7216L205.915 30.2727H206.972Z" fill="#8492A7"/>
<rect x="225" y="21" width="37" height="27" fill="white"/>
<path d="M240.903 39V38.233L243.784 35.0795C244.122 34.7102 244.401 34.3892 244.619 34.1165C244.838 33.8409 245 33.5824 245.105 33.3409C245.213 33.0966 245.267 32.8409 245.267 32.5739C245.267 32.267 245.193 32.0014 245.045 31.777C244.901 31.5526 244.702 31.3793 244.449 31.2571C244.196 31.1349 243.912 31.0739 243.597 31.0739C243.261 31.0739 242.969 31.1435 242.719 31.2827C242.472 31.419 242.28 31.6108 242.143 31.858C242.01 32.1051 241.943 32.3949 241.943 32.7273H240.938C240.938 32.2159 241.055 31.767 241.291 31.3807C241.527 30.9943 241.848 30.6932 242.254 30.4773C242.663 30.2614 243.122 30.1534 243.631 30.1534C244.142 30.1534 244.595 30.2614 244.99 30.4773C245.385 30.6932 245.695 30.9844 245.919 31.3509C246.143 31.7173 246.256 32.125 246.256 32.5739C246.256 32.8949 246.197 33.2088 246.081 33.5156C245.967 33.8196 245.768 34.1591 245.484 34.5341C245.203 34.9062 244.812 35.3608 244.312 35.8977L242.352 37.9943V38.0625H246.409V39H240.903Z" fill="#8492A7"/>
<rect x="262" y="21" width="37" height="27" fill="#F7F8FA"/>
<path d="M280.852 39.1193C280.29 39.1193 279.788 39.0227 279.348 38.8295C278.911 38.6364 278.563 38.3679 278.304 38.0241C278.048 37.6776 277.909 37.2756 277.886 36.8182H278.96C278.983 37.0994 279.08 37.3423 279.25 37.5469C279.42 37.7486 279.643 37.9048 279.919 38.0156C280.195 38.1264 280.5 38.1818 280.835 38.1818C281.21 38.1818 281.543 38.1165 281.832 37.9858C282.122 37.8551 282.349 37.6733 282.514 37.4403C282.679 37.2074 282.761 36.9375 282.761 36.6307C282.761 36.3097 282.682 36.027 282.523 35.7827C282.364 35.5355 282.131 35.3423 281.824 35.2031C281.517 35.0639 281.142 34.9943 280.699 34.9943H280V34.0568H280.699C281.045 34.0568 281.349 33.9943 281.611 33.8693C281.875 33.7443 282.081 33.5682 282.229 33.3409C282.379 33.1136 282.455 32.8466 282.455 32.5398C282.455 32.2443 282.389 31.9872 282.259 31.7685C282.128 31.5497 281.943 31.3793 281.705 31.2571C281.469 31.1349 281.19 31.0739 280.869 31.0739C280.568 31.0739 280.284 31.1293 280.017 31.2401C279.753 31.348 279.537 31.5057 279.369 31.7131C279.202 31.9176 279.111 32.1648 279.097 32.4545H278.074C278.091 31.9972 278.229 31.5966 278.487 31.2528C278.746 30.9062 279.084 30.6364 279.501 30.4432C279.922 30.25 280.384 30.1534 280.886 30.1534C281.426 30.1534 281.889 30.2628 282.276 30.4815C282.662 30.6974 282.959 30.983 283.166 31.3381C283.374 31.6932 283.477 32.0767 283.477 32.4886C283.477 32.9801 283.348 33.3991 283.089 33.7457C282.834 34.0923 282.486 34.3324 282.045 34.4659V34.5341C282.597 34.625 283.027 34.8594 283.337 35.2372C283.646 35.6122 283.801 36.0767 283.801 36.6307C283.801 37.1051 283.672 37.5312 283.413 37.9091C283.158 38.2841 282.808 38.5795 282.365 38.7955C281.922 39.0114 281.418 39.1193 280.852 39.1193Z" fill="#8492A7"/>
<rect x="299" y="21" width="37" height="27" fill="white"/>
<path d="M314.699 37.2102V36.3409L318.534 30.2727H319.165V31.6193H318.739L315.841 36.2045V36.2727H321.006V37.2102H314.699ZM318.807 39V36.946V36.5412V30.2727H319.812V39H318.807Z" fill="#8492A7"/>
<rect x="336" y="21" width="37" height="27" fill="#F7F8FA"/>
<path d="M354.631 39.1193C354.131 39.1193 353.68 39.0199 353.28 38.821C352.879 38.6222 352.558 38.3494 352.317 38.0028C352.075 37.6562 351.943 37.2614 351.92 36.8182H352.943C352.983 37.2131 353.162 37.5398 353.48 37.7983C353.801 38.054 354.185 38.1818 354.631 38.1818C354.989 38.1818 355.307 38.098 355.585 37.9304C355.866 37.7628 356.087 37.5327 356.246 37.2401C356.408 36.9446 356.489 36.6108 356.489 36.2386C356.489 35.858 356.405 35.5185 356.237 35.2202C356.072 34.919 355.845 34.6818 355.555 34.5085C355.266 34.3352 354.935 34.2472 354.562 34.2443C354.295 34.2415 354.021 34.2827 353.74 34.3679C353.459 34.4503 353.227 34.5568 353.045 34.6875L352.057 34.5682L352.585 30.2727H357.119V31.2102H353.472L353.165 33.7841H353.216C353.395 33.642 353.619 33.5241 353.889 33.4304C354.159 33.3366 354.44 33.2898 354.733 33.2898C355.267 33.2898 355.743 33.4176 356.161 33.6733C356.581 33.9261 356.911 34.2727 357.149 34.7131C357.391 35.1534 357.511 35.6562 357.511 36.2216C357.511 36.7784 357.386 37.2756 357.136 37.7131C356.889 38.1477 356.548 38.4915 356.114 38.7443C355.679 38.9943 355.185 39.1193 354.631 39.1193Z" fill="#8492A7"/>
<rect x="373" y="1" width="185" height="20" fill="white"/>
<path d="M451.202 15L449.213 7.72727H450.108L451.628 13.6506H451.699L453.247 7.72727H454.241L455.79 13.6506H455.861L457.381 7.72727H458.276L456.287 15H455.378L453.773 9.20455H453.716L452.111 15H451.202ZM460.838 15.1136C460.313 15.1136 459.859 14.9976 459.478 14.7656C459.099 14.5312 458.807 14.2045 458.601 13.7855C458.398 13.3641 458.296 12.8741 458.296 12.3153C458.296 11.7566 458.398 11.2642 458.601 10.8381C458.807 10.4096 459.094 10.0758 459.461 9.83665C459.83 9.59517 460.261 9.47443 460.753 9.47443C461.037 9.47443 461.318 9.52178 461.595 9.61648C461.872 9.71117 462.124 9.86506 462.351 10.0781C462.578 10.2888 462.76 10.5682 462.894 10.9162C463.029 11.2642 463.097 11.6927 463.097 12.2017V12.5568H458.892V11.8324H462.245C462.245 11.5246 462.183 11.25 462.06 11.0085C461.939 10.767 461.766 10.5765 461.541 10.4368C461.319 10.2971 461.056 10.2273 460.753 10.2273C460.419 10.2273 460.13 10.3101 459.887 10.4759C459.645 10.6392 459.459 10.8523 459.329 11.1151C459.199 11.3778 459.134 11.6596 459.134 11.9602V12.4432C459.134 12.8551 459.205 13.2043 459.347 13.4908C459.491 13.7749 459.691 13.9915 459.947 14.1406C460.203 14.2874 460.5 14.3608 460.838 14.3608C461.059 14.3608 461.257 14.33 461.435 14.2685C461.615 14.2045 461.77 14.1098 461.9 13.9844C462.03 13.8565 462.131 13.6979 462.202 13.5085L463.012 13.7358C462.926 14.0104 462.783 14.2519 462.582 14.4602C462.381 14.6662 462.132 14.8272 461.836 14.9432C461.54 15.0568 461.208 15.1136 460.838 15.1136ZM466.459 15.1136C465.933 15.1136 465.48 14.9976 465.099 14.7656C464.72 14.5312 464.427 14.2045 464.221 13.7855C464.018 13.3641 463.916 12.8741 463.916 12.3153C463.916 11.7566 464.018 11.2642 464.221 10.8381C464.427 10.4096 464.714 10.0758 465.081 9.83665C465.45 9.59517 465.881 9.47443 466.373 9.47443C466.658 9.47443 466.938 9.52178 467.215 9.61648C467.492 9.71117 467.744 9.86506 467.971 10.0781C468.199 10.2888 468.38 10.5682 468.515 10.9162C468.65 11.2642 468.717 11.6927 468.717 12.2017V12.5568H464.513V11.8324H467.865C467.865 11.5246 467.803 11.25 467.68 11.0085C467.56 10.767 467.387 10.5765 467.162 10.4368C466.939 10.2971 466.676 10.2273 466.373 10.2273C466.04 10.2273 465.751 10.3101 465.507 10.4759C465.265 10.6392 465.08 10.8523 464.949 11.1151C464.819 11.3778 464.754 11.6596 464.754 11.9602V12.4432C464.754 12.8551 464.825 13.2043 464.967 13.4908C465.112 13.7749 465.312 13.9915 465.567 14.1406C465.823 14.2874 466.12 14.3608 466.459 14.3608C466.679 14.3608 466.878 14.33 467.055 14.2685C467.235 14.2045 467.39 14.1098 467.52 13.9844C467.651 13.8565 467.751 13.6979 467.822 13.5085L468.632 13.7358C468.547 14.0104 468.404 14.2519 468.202 14.4602C468.001 14.6662 467.752 14.8272 467.457 14.9432C467.161 15.0568 466.828 15.1136 466.459 15.1136ZM470.573 13.0114L470.559 11.9744H470.73L473.116 9.54545H474.153L471.61 12.1165H471.539L470.573 13.0114ZM469.792 15V7.72727H470.63V15H469.792ZM473.258 15L471.127 12.3011L471.724 11.7188L474.323 15H473.258ZM477.63 15V14.3608L480.03 11.733C480.312 11.4252 480.544 11.1577 480.726 10.9304C480.909 10.7008 481.044 10.4853 481.131 10.2841C481.221 10.0805 481.266 9.86742 481.266 9.64489C481.266 9.3892 481.205 9.16785 481.081 8.98082C480.961 8.7938 480.795 8.64938 480.584 8.54759C480.374 8.44579 480.137 8.39489 479.874 8.39489C479.595 8.39489 479.351 8.45289 479.143 8.56889C478.937 8.68253 478.777 8.84233 478.663 9.0483C478.552 9.25426 478.496 9.49574 478.496 9.77273H477.658C477.658 9.34659 477.756 8.97254 477.953 8.65057C478.149 8.3286 478.417 8.07765 478.756 7.89773C479.096 7.7178 479.479 7.62784 479.903 7.62784C480.329 7.62784 480.706 7.7178 481.035 7.89773C481.364 8.07765 481.622 8.32031 481.809 8.62571C481.997 8.93111 482.09 9.27083 482.09 9.64489C482.09 9.91241 482.041 10.174 481.944 10.4297C481.85 10.683 481.684 10.9659 481.447 11.2784C481.213 11.5885 480.887 11.9673 480.471 12.4148L478.837 14.1619V14.2188H482.218V15H477.63Z" fill="#525865"/>
<rect x="373" y="21" width="37" height="27" fill="#F7F8FA"/>
<path d="M391.972 30.2727V39H390.915V31.3807H390.864L388.733 32.7955V31.7216L390.915 30.2727H391.972Z" fill="#8492A7"/>
<rect x="410" y="21" width="37" height="27" fill="white"/>
<path d="M425.903 39V38.233L428.784 35.0795C429.122 34.7102 429.401 34.3892 429.619 34.1165C429.838 33.8409 430 33.5824 430.105 33.3409C430.213 33.0966 430.267 32.8409 430.267 32.5739C430.267 32.267 430.193 32.0014 430.045 31.777C429.901 31.5526 429.702 31.3793 429.449 31.2571C429.196 31.1349 428.912 31.0739 428.597 31.0739C428.261 31.0739 427.969 31.1435 427.719 31.2827C427.472 31.419 427.28 31.6108 427.143 31.858C427.01 32.1051 426.943 32.3949 426.943 32.7273H425.938C425.938 32.2159 426.055 31.767 426.291 31.3807C426.527 30.9943 426.848 30.6932 427.254 30.4773C427.663 30.2614 428.122 30.1534 428.631 30.1534C429.142 30.1534 429.595 30.2614 429.99 30.4773C430.385 30.6932 430.695 30.9844 430.919 31.3509C431.143 31.7173 431.256 32.125 431.256 32.5739C431.256 32.8949 431.197 33.2088 431.081 33.5156C430.967 33.8196 430.768 34.1591 430.484 34.5341C430.203 34.9062 429.812 35.3608 429.312 35.8977L427.352 37.9943V38.0625H431.409V39H425.903Z" fill="#8492A7"/>
<rect x="447" y="21" width="37" height="27" fill="#F7F8FA"/>
<path d="M465.852 39.1193C465.29 39.1193 464.788 39.0227 464.348 38.8295C463.911 38.6364 463.563 38.3679 463.304 38.0241C463.048 37.6776 462.909 37.2756 462.886 36.8182H463.96C463.983 37.0994 464.08 37.3423 464.25 37.5469C464.42 37.7486 464.643 37.9048 464.919 38.0156C465.195 38.1264 465.5 38.1818 465.835 38.1818C466.21 38.1818 466.543 38.1165 466.832 37.9858C467.122 37.8551 467.349 37.6733 467.514 37.4403C467.679 37.2074 467.761 36.9375 467.761 36.6307C467.761 36.3097 467.682 36.027 467.523 35.7827C467.364 35.5355 467.131 35.3423 466.824 35.2031C466.517 35.0639 466.142 34.9943 465.699 34.9943H465V34.0568H465.699C466.045 34.0568 466.349 33.9943 466.611 33.8693C466.875 33.7443 467.081 33.5682 467.229 33.3409C467.379 33.1136 467.455 32.8466 467.455 32.5398C467.455 32.2443 467.389 31.9872 467.259 31.7685C467.128 31.5497 466.943 31.3793 466.705 31.2571C466.469 31.1349 466.19 31.0739 465.869 31.0739C465.568 31.0739 465.284 31.1293 465.017 31.2401C464.753 31.348 464.537 31.5057 464.369 31.7131C464.202 31.9176 464.111 32.1648 464.097 32.4545H463.074C463.091 31.9972 463.229 31.5966 463.487 31.2528C463.746 30.9062 464.084 30.6364 464.501 30.4432C464.922 30.25 465.384 30.1534 465.886 30.1534C466.426 30.1534 466.889 30.2628 467.276 30.4815C467.662 30.6974 467.959 30.983 468.166 31.3381C468.374 31.6932 468.477 32.0767 468.477 32.4886C468.477 32.9801 468.348 33.3991 468.089 33.7457C467.834 34.0923 467.486 34.3324 467.045 34.4659V34.5341C467.597 34.625 468.027 34.8594 468.337 35.2372C468.646 35.6122 468.801 36.0767 468.801 36.6307C468.801 37.1051 468.672 37.5312 468.413 37.9091C468.158 38.2841 467.808 38.5795 467.365 38.7955C466.922 39.0114 466.418 39.1193 465.852 39.1193Z" fill="#8492A7"/>
<rect x="484" y="21" width="37" height="27" fill="white"/>
<path d="M499.699 37.2102V36.3409L503.534 30.2727H504.165V31.6193H503.739L500.841 36.2045V36.2727H506.006V37.2102H499.699ZM503.807 39V36.946V36.5412V30.2727H504.812V39H503.807Z" fill="#8492A7"/>
<rect x="521" y="21" width="37" height="27" fill="#F7F8FA"/>
<path d="M539.631 39.1193C539.131 39.1193 538.68 39.0199 538.28 38.821C537.879 38.6222 537.558 38.3494 537.317 38.0028C537.075 37.6562 536.943 37.2614 536.92 36.8182H537.943C537.983 37.2131 538.162 37.5398 538.48 37.7983C538.801 38.054 539.185 38.1818 539.631 38.1818C539.989 38.1818 540.307 38.098 540.585 37.9304C540.866 37.7628 541.087 37.5327 541.246 37.2401C541.408 36.9446 541.489 36.6108 541.489 36.2386C541.489 35.858 541.405 35.5185 541.237 35.2202C541.072 34.919 540.845 34.6818 540.555 34.5085C540.266 34.3352 539.935 34.2472 539.562 34.2443C539.295 34.2415 539.021 34.2827 538.74 34.3679C538.459 34.4503 538.227 34.5568 538.045 34.6875L537.057 34.5682L537.585 30.2727H542.119V31.2102H538.472L538.165 33.7841H538.216C538.395 33.642 538.619 33.5241 538.889 33.4304C539.159 33.3366 539.44 33.2898 539.733 33.2898C540.267 33.2898 540.743 33.4176 541.161 33.6733C541.581 33.9261 541.911 34.2727 542.149 34.7131C542.391 35.1534 542.511 35.6562 542.511 36.2216C542.511 36.7784 542.386 37.2756 542.136 37.7131C541.889 38.1477 541.548 38.4915 541.114 38.7443C540.679 38.9943 540.185 39.1193 539.631 39.1193Z" fill="#8492A7"/>
<rect x="558" y="1" width="185" height="20" fill="#F7F8FA"/>
<path d="M636.202 15L634.213 7.72727H635.108L636.628 13.6506H636.699L638.247 7.72727H639.241L640.79 13.6506H640.861L642.381 7.72727H643.276L641.287 15H640.378L638.773 9.20455H638.716L637.111 15H636.202ZM645.838 15.1136C645.313 15.1136 644.859 14.9976 644.478 14.7656C644.099 14.5312 643.807 14.2045 643.601 13.7855C643.398 13.3641 643.296 12.8741 643.296 12.3153C643.296 11.7566 643.398 11.2642 643.601 10.8381C643.807 10.4096 644.094 10.0758 644.461 9.83665C644.83 9.59517 645.261 9.47443 645.753 9.47443C646.037 9.47443 646.318 9.52178 646.595 9.61648C646.872 9.71117 647.124 9.86506 647.351 10.0781C647.578 10.2888 647.76 10.5682 647.894 10.9162C648.029 11.2642 648.097 11.6927 648.097 12.2017V12.5568H643.892V11.8324H647.245C647.245 11.5246 647.183 11.25 647.06 11.0085C646.939 10.767 646.766 10.5765 646.541 10.4368C646.319 10.2971 646.056 10.2273 645.753 10.2273C645.419 10.2273 645.13 10.3101 644.887 10.4759C644.645 10.6392 644.459 10.8523 644.329 11.1151C644.199 11.3778 644.134 11.6596 644.134 11.9602V12.4432C644.134 12.8551 644.205 13.2043 644.347 13.4908C644.491 13.7749 644.691 13.9915 644.947 14.1406C645.203 14.2874 645.5 14.3608 645.838 14.3608C646.059 14.3608 646.257 14.33 646.435 14.2685C646.615 14.2045 646.77 14.1098 646.9 13.9844C647.03 13.8565 647.131 13.6979 647.202 13.5085L648.012 13.7358C647.926 14.0104 647.783 14.2519 647.582 14.4602C647.381 14.6662 647.132 14.8272 646.836 14.9432C646.54 15.0568 646.208 15.1136 645.838 15.1136ZM651.459 15.1136C650.933 15.1136 650.48 14.9976 650.099 14.7656C649.72 14.5312 649.427 14.2045 649.221 13.7855C649.018 13.3641 648.916 12.8741 648.916 12.3153C648.916 11.7566 649.018 11.2642 649.221 10.8381C649.427 10.4096 649.714 10.0758 650.081 9.83665C650.45 9.59517 650.881 9.47443 651.373 9.47443C651.658 9.47443 651.938 9.52178 652.215 9.61648C652.492 9.71117 652.744 9.86506 652.971 10.0781C653.199 10.2888 653.38 10.5682 653.515 10.9162C653.65 11.2642 653.717 11.6927 653.717 12.2017V12.5568H649.513V11.8324H652.865C652.865 11.5246 652.803 11.25 652.68 11.0085C652.56 10.767 652.387 10.5765 652.162 10.4368C651.939 10.2971 651.676 10.2273 651.373 10.2273C651.04 10.2273 650.751 10.3101 650.507 10.4759C650.265 10.6392 650.08 10.8523 649.949 11.1151C649.819 11.3778 649.754 11.6596 649.754 11.9602V12.4432C649.754 12.8551 649.825 13.2043 649.967 13.4908C650.112 13.7749 650.312 13.9915 650.567 14.1406C650.823 14.2874 651.12 14.3608 651.459 14.3608C651.679 14.3608 651.878 14.33 652.055 14.2685C652.235 14.2045 652.39 14.1098 652.52 13.9844C652.651 13.8565 652.751 13.6979 652.822 13.5085L653.632 13.7358C653.547 14.0104 653.404 14.2519 653.202 14.4602C653.001 14.6662 652.752 14.8272 652.457 14.9432C652.161 15.0568 651.828 15.1136 651.459 15.1136ZM655.573 13.0114L655.559 11.9744H655.73L658.116 9.54545H659.153L656.61 12.1165H656.539L655.573 13.0114ZM654.792 15V7.72727H655.63V15H654.792ZM658.258 15L656.127 12.3011L656.724 11.7188L659.323 15H658.258ZM665.087 15.0994C664.618 15.0994 664.201 15.0189 663.834 14.858C663.469 14.697 663.179 14.4732 662.964 14.1868C662.751 13.898 662.635 13.563 662.616 13.1818H663.51C663.529 13.4162 663.61 13.6186 663.752 13.7891C663.894 13.9571 664.08 14.0874 664.309 14.1797C664.539 14.272 664.794 14.3182 665.073 14.3182C665.385 14.3182 665.662 14.2637 665.904 14.1548C666.145 14.0459 666.335 13.8944 666.472 13.7003C666.609 13.5062 666.678 13.2812 666.678 13.0256C666.678 12.758 666.612 12.5225 666.479 12.3189C666.347 12.1129 666.153 11.9519 665.897 11.8359C665.641 11.7199 665.329 11.6619 664.959 11.6619H664.377V10.8807H664.959C665.248 10.8807 665.501 10.8286 665.719 10.7244C665.939 10.6203 666.111 10.4735 666.234 10.2841C666.36 10.0947 666.422 9.87216 666.422 9.61648C666.422 9.37026 666.368 9.15601 666.259 8.97372C666.15 8.79143 665.996 8.64938 665.797 8.54759C665.601 8.44579 665.369 8.39489 665.101 8.39489C664.85 8.39489 664.614 8.44105 664.391 8.53338C664.171 8.62334 663.991 8.75473 663.851 8.92756C663.712 9.09801 663.636 9.30398 663.624 9.54545H662.772C662.786 9.1643 662.901 8.83049 663.116 8.54403C663.332 8.25521 663.613 8.0303 663.961 7.86932C664.312 7.70833 664.697 7.62784 665.116 7.62784C665.565 7.62784 665.951 7.71899 666.273 7.90128C666.595 8.0812 666.843 8.31913 667.015 8.61506C667.188 8.91098 667.275 9.23059 667.275 9.57386C667.275 9.98343 667.167 10.3326 666.952 10.6214C666.738 10.9103 666.448 11.1103 666.081 11.2216V11.2784C666.541 11.3542 666.899 11.5495 667.157 11.8643C667.416 12.1768 667.545 12.5639 667.545 13.0256C667.545 13.4209 667.437 13.776 667.221 14.0909C667.008 14.4034 666.717 14.6496 666.348 14.8295C665.979 15.0095 665.558 15.0994 665.087 15.0994Z" fill="#525865"/>
<rect x="558" y="21" width="37" height="27" fill="#F7F8FA"/>
<path d="M576.972 30.2727V39H575.915V31.3807H575.864L573.733 32.7955V31.7216L575.915 30.2727H576.972Z" fill="#8492A7"/>
<rect x="595" y="21" width="37" height="27" fill="white"/>
<path d="M610.903 39V38.233L613.784 35.0795C614.122 34.7102 614.401 34.3892 614.619 34.1165C614.838 33.8409 615 33.5824 615.105 33.3409C615.213 33.0966 615.267 32.8409 615.267 32.5739C615.267 32.267 615.193 32.0014 615.045 31.777C614.901 31.5526 614.702 31.3793 614.449 31.2571C614.196 31.1349 613.912 31.0739 613.597 31.0739C613.261 31.0739 612.969 31.1435 612.719 31.2827C612.472 31.419 612.28 31.6108 612.143 31.858C612.01 32.1051 611.943 32.3949 611.943 32.7273H610.938C610.938 32.2159 611.055 31.767 611.291 31.3807C611.527 30.9943 611.848 30.6932 612.254 30.4773C612.663 30.2614 613.122 30.1534 613.631 30.1534C614.142 30.1534 614.595 30.2614 614.99 30.4773C615.385 30.6932 615.695 30.9844 615.919 31.3509C616.143 31.7173 616.256 32.125 616.256 32.5739C616.256 32.8949 616.197 33.2088 616.081 33.5156C615.967 33.8196 615.768 34.1591 615.484 34.5341C615.203 34.9062 614.812 35.3608 614.312 35.8977L612.352 37.9943V38.0625H616.409V39H610.903Z" fill="#8492A7"/>
<rect x="632" y="21" width="37" height="27" fill="#F7F8FA"/>
<path d="M650.852 39.1193C650.29 39.1193 649.788 39.0227 649.348 38.8295C648.911 38.6364 648.563 38.3679 648.304 38.0241C648.048 37.6776 647.909 37.2756 647.886 36.8182H648.96C648.983 37.0994 649.08 37.3423 649.25 37.5469C649.42 37.7486 649.643 37.9048 649.919 38.0156C650.195 38.1264 650.5 38.1818 650.835 38.1818C651.21 38.1818 651.543 38.1165 651.832 37.9858C652.122 37.8551 652.349 37.6733 652.514 37.4403C652.679 37.2074 652.761 36.9375 652.761 36.6307C652.761 36.3097 652.682 36.027 652.523 35.7827C652.364 35.5355 652.131 35.3423 651.824 35.2031C651.517 35.0639 651.142 34.9943 650.699 34.9943H650V34.0568H650.699C651.045 34.0568 651.349 33.9943 651.611 33.8693C651.875 33.7443 652.081 33.5682 652.229 33.3409C652.379 33.1136 652.455 32.8466 652.455 32.5398C652.455 32.2443 652.389 31.9872 652.259 31.7685C652.128 31.5497 651.943 31.3793 651.705 31.2571C651.469 31.1349 651.19 31.0739 650.869 31.0739C650.568 31.0739 650.284 31.1293 650.017 31.2401C649.753 31.348 649.537 31.5057 649.369 31.7131C649.202 31.9176 649.111 32.1648 649.097 32.4545H648.074C648.091 31.9972 648.229 31.5966 648.487 31.2528C648.746 30.9062 649.084 30.6364 649.501 30.4432C649.922 30.25 650.384 30.1534 650.886 30.1534C651.426 30.1534 651.889 30.2628 652.276 30.4815C652.662 30.6974 652.959 30.983 653.166 31.3381C653.374 31.6932 653.477 32.0767 653.477 32.4886C653.477 32.9801 653.348 33.3991 653.089 33.7457C652.834 34.0923 652.486 34.3324 652.045 34.4659V34.5341C652.597 34.625 653.027 34.8594 653.337 35.2372C653.646 35.6122 653.801 36.0767 653.801 36.6307C653.801 37.1051 653.672 37.5312 653.413 37.9091C653.158 38.2841 652.808 38.5795 652.365 38.7955C651.922 39.0114 651.418 39.1193 650.852 39.1193Z" fill="#8492A7"/>
<rect x="669" y="21" width="37" height="27" fill="white"/>
<path d="M684.699 37.2102V36.3409L688.534 30.2727H689.165V31.6193H688.739L685.841 36.2045V36.2727H691.006V37.2102H684.699ZM688.807 39V36.946V36.5412V30.2727H689.812V39H688.807Z" fill="#8492A7"/>
<rect x="706" y="21" width="37" height="27" fill="#F7F8FA"/>
<path d="M724.631 39.1193C724.131 39.1193 723.68 39.0199 723.28 38.821C722.879 38.6222 722.558 38.3494 722.317 38.0028C722.075 37.6562 721.943 37.2614 721.92 36.8182H722.943C722.983 37.2131 723.162 37.5398 723.48 37.7983C723.801 38.054 724.185 38.1818 724.631 38.1818C724.989 38.1818 725.307 38.098 725.585 37.9304C725.866 37.7628 726.087 37.5327 726.246 37.2401C726.408 36.9446 726.489 36.6108 726.489 36.2386C726.489 35.858 726.405 35.5185 726.237 35.2202C726.072 34.919 725.845 34.6818 725.555 34.5085C725.266 34.3352 724.935 34.2472 724.562 34.2443C724.295 34.2415 724.021 34.2827 723.74 34.3679C723.459 34.4503 723.227 34.5568 723.045 34.6875L722.057 34.5682L722.585 30.2727H727.119V31.2102H723.472L723.165 33.7841H723.216C723.395 33.642 723.619 33.5241 723.889 33.4304C724.159 33.3366 724.44 33.2898 724.733 33.2898C725.267 33.2898 725.743 33.4176 726.161 33.6733C726.581 33.9261 726.911 34.2727 727.149 34.7131C727.391 35.1534 727.511 35.6562 727.511 36.2216C727.511 36.7784 727.386 37.2756 727.136 37.7131C726.889 38.1477 726.548 38.4915 726.114 38.7443C725.679 38.9943 725.185 39.1193 724.631 39.1193Z" fill="#8492A7"/>
<g clip-path="url(#clip1_122_712)">
<rect x="743" y="1" width="185" height="20" fill="white"/>
<rect x="743" y="21" width="37" height="27" fill="#F7F8FA"/>
<path d="M761.972 30.2727V39H760.915V31.3807H760.864L758.733 32.7955V31.7216L760.915 30.2727H761.972Z" fill="#8492A7"/>
</g>
</g>
<mask id="path-45-inside-3_122_712" fill="white">
<path d="M0 48H188V196H0V48Z"/>
</mask>
<path d="M187 48V196H189V48H187Z" fill="#E8E8E8" mask="url(#path-45-inside-3_122_712)"/>
<path d="M18.6761 62.9119V61.8182H26.3125V62.9119H23.1108V72H21.8778V62.9119H18.6761ZM28.9844 72.179C28.5005 72.179 28.0613 72.0878 27.6669 71.9055C27.2725 71.7199 26.9593 71.4531 26.7273 71.1051C26.4953 70.7538 26.3793 70.3295 26.3793 69.8324C26.3793 69.3949 26.4654 69.0402 26.6378 68.7685C26.8101 68.4934 27.0405 68.2779 27.3288 68.1222C27.6172 67.9664 27.9354 67.8504 28.2834 67.7741C28.6347 67.6946 28.9877 67.6316 29.3423 67.5852C29.8064 67.5256 30.1825 67.4808 30.4709 67.451C30.7626 67.4179 30.9747 67.3632 31.1073 67.2869C31.2431 67.2107 31.3111 67.0781 31.3111 66.8892V66.8494C31.3111 66.3589 31.1769 65.9777 30.9084 65.706C30.6432 65.4342 30.2405 65.2983 29.7003 65.2983C29.1402 65.2983 28.701 65.4209 28.3828 65.6662C28.0646 65.9115 27.8409 66.1733 27.7117 66.4517L26.598 66.054C26.7969 65.59 27.062 65.2287 27.3935 64.9702C27.7282 64.7083 28.0928 64.526 28.4872 64.4233C28.885 64.3172 29.276 64.2642 29.6605 64.2642C29.9058 64.2642 30.1875 64.294 30.5057 64.3537C30.8272 64.41 31.1371 64.5277 31.4354 64.7067C31.737 64.8857 31.9872 65.1558 32.1861 65.517C32.385 65.8783 32.4844 66.3622 32.4844 66.9688V72H31.3111V70.9659H31.2514C31.1719 71.1316 31.0393 71.3089 30.8537 71.4979C30.6681 71.6868 30.4212 71.8475 30.1129 71.9801C29.8047 72.1127 29.4285 72.179 28.9844 72.179ZM29.1634 71.125C29.6274 71.125 30.0185 71.0339 30.3367 70.8516C30.6582 70.6693 30.9001 70.4339 31.0625 70.1456C31.2282 69.8572 31.3111 69.554 31.3111 69.2358V68.1619C31.2614 68.2216 31.152 68.2763 30.983 68.326C30.8172 68.3724 30.625 68.4138 30.4063 68.4503C30.1908 68.4834 29.9804 68.5133 29.7749 68.5398C29.5727 68.563 29.4086 68.5829 29.2827 68.5994C28.9778 68.6392 28.6927 68.7038 28.4276 68.7933C28.1657 68.8795 27.9536 69.0104 27.7912 69.1861C27.6321 69.3584 27.5526 69.5937 27.5526 69.892C27.5526 70.2997 27.7034 70.608 28.005 70.8168C28.3099 71.0223 28.696 71.125 29.1634 71.125ZM39.755 66.0739L38.701 66.3722C38.6347 66.1965 38.5369 66.0258 38.4077 65.8601C38.2817 65.6911 38.1094 65.5518 37.8906 65.4425C37.6719 65.3331 37.3918 65.2784 37.0504 65.2784C36.5831 65.2784 36.1937 65.3861 35.8821 65.6016C35.5739 65.8137 35.4198 66.0838 35.4198 66.4119C35.4198 66.7036 35.5258 66.9339 35.7379 67.103C35.9501 67.272 36.2815 67.4129 36.7323 67.5256L37.8658 67.804C38.5485 67.9697 39.0573 68.2232 39.3921 68.5646C39.7268 68.9027 39.8942 69.3385 39.8942 69.8722C39.8942 70.3097 39.7682 70.7008 39.5163 71.0455C39.2678 71.3902 38.9198 71.6619 38.4723 71.8608C38.0249 72.0597 37.5045 72.1591 36.9112 72.1591C36.1324 72.1591 35.4877 71.9901 34.9773 71.652C34.4669 71.3139 34.1437 70.8201 34.0078 70.1705L35.1215 69.892C35.2275 70.303 35.428 70.6113 35.723 70.8168C36.0213 71.0223 36.4108 71.125 36.8913 71.125C37.4382 71.125 37.8724 71.009 38.1939 70.777C38.5187 70.5417 38.6811 70.2599 38.6811 69.9318C38.6811 69.6667 38.5883 69.4446 38.4027 69.2656C38.2171 69.0833 37.9321 68.9474 37.5476 68.858L36.2749 68.5597C35.5755 68.3939 35.0618 68.1371 34.7337 67.7891C34.4089 67.4377 34.2465 66.9986 34.2465 66.4716C34.2465 66.0407 34.3674 65.6596 34.6094 65.3281C34.8547 64.9967 35.1878 64.7365 35.6087 64.5476C36.0329 64.3587 36.5135 64.2642 37.0504 64.2642C37.8061 64.2642 38.3994 64.4299 38.8303 64.7614C39.2645 65.0928 39.5727 65.5303 39.755 66.0739ZM42.4741 69.2159L42.4542 67.7642H42.6928L46.0338 64.3636H47.4855L43.9258 67.9631H43.8264L42.4741 69.2159ZM41.3803 72V61.8182H42.5536V72H41.3803ZM46.2326 72L43.2497 68.2216L44.0849 67.4062L47.7241 72H46.2326ZM54.1247 66.0739L53.0707 66.3722C53.0044 66.1965 52.9066 66.0258 52.7774 65.8601C52.6514 65.6911 52.4791 65.5518 52.2603 65.4425C52.0416 65.3331 51.7615 65.2784 51.4201 65.2784C50.9528 65.2784 50.5634 65.3861 50.2518 65.6016C49.9436 65.8137 49.7894 66.0838 49.7894 66.4119C49.7894 66.7036 49.8955 66.9339 50.1076 67.103C50.3197 67.272 50.6512 67.4129 51.1019 67.5256L52.2355 67.804C52.9182 67.9697 53.427 68.2232 53.7617 68.5646C54.0965 68.9027 54.2639 69.3385 54.2639 69.8722C54.2639 70.3097 54.1379 70.7008 53.886 71.0455C53.6375 71.3902 53.2894 71.6619 52.842 71.8608C52.3946 72.0597 51.8742 72.1591 51.2809 72.1591C50.502 72.1591 49.8574 71.9901 49.347 71.652C48.8366 71.3139 48.5134 70.8201 48.3775 70.1705L49.4911 69.892C49.5972 70.303 49.7977 70.6113 50.0927 70.8168C50.391 71.0223 50.7804 71.125 51.261 71.125C51.8079 71.125 52.2421 71.009 52.5636 70.777C52.8884 70.5417 53.0508 70.2599 53.0508 69.9318C53.0508 69.6667 52.958 69.4446 52.7724 69.2656C52.5868 69.0833 52.3018 68.9474 51.9173 68.858L50.6446 68.5597C49.9452 68.3939 49.4315 68.1371 49.1034 67.7891C48.7786 67.4377 48.6161 66.9986 48.6161 66.4716C48.6161 66.0407 48.7371 65.6596 48.9791 65.3281C49.2243 64.9967 49.5574 64.7365 49.9784 64.5476C50.4026 64.3587 50.8832 64.2642 51.4201 64.2642C52.1758 64.2642 52.7691 64.4299 53.2 64.7614C53.6341 65.0928 53.9424 65.5303 54.1247 66.0739Z" fill="#8492A7"/>
<path d="M19.233 109V98.8182H20.4659V107.906H25.1989V109H19.233ZM26.6689 109V101.364H27.8422V109H26.6689ZM27.2655 100.091C27.0368 100.091 26.8396 100.013 26.6738 99.8572C26.5114 99.7015 26.4302 99.5142 26.4302 99.2955C26.4302 99.0767 26.5114 98.8894 26.6738 98.7337C26.8396 98.5779 27.0368 98.5 27.2655 98.5C27.4941 98.5 27.6897 98.5779 27.8521 98.7337C28.0178 98.8894 28.1007 99.0767 28.1007 99.2955C28.1007 99.5142 28.0178 99.7015 27.8521 99.8572C27.6897 100.013 27.4941 100.091 27.2655 100.091ZM33.1117 101.364V102.358H28.9952V101.364H33.1117ZM30.2282 109V100.31C30.2282 99.8722 30.3309 99.5076 30.5364 99.2159C30.7419 98.9242 31.0087 98.7055 31.3368 98.5597C31.665 98.4138 32.0113 98.3409 32.3759 98.3409C32.6643 98.3409 32.8996 98.3641 33.0819 98.4105C33.2642 98.4569 33.4 98.5 33.4895 98.5398L33.1515 99.554C33.0918 99.5341 33.009 99.5092 32.9029 99.4794C32.8001 99.4496 32.6643 99.4347 32.4952 99.4347C32.1074 99.4347 31.8274 99.5324 31.655 99.728C31.486 99.9235 31.4015 100.21 31.4015 100.588V109H30.2282ZM37.3633 109.159C36.6275 109.159 35.9928 108.997 35.4592 108.672C34.9289 108.344 34.5196 107.886 34.2312 107.3C33.9462 106.71 33.8036 106.024 33.8036 105.241C33.8036 104.459 33.9462 103.77 34.2312 103.173C34.5196 102.573 34.9206 102.106 35.4343 101.771C35.9514 101.433 36.5546 101.264 37.244 101.264C37.6417 101.264 38.0345 101.33 38.4223 101.463C38.81 101.596 39.163 101.811 39.4812 102.109C39.7994 102.404 40.0529 102.795 40.2419 103.283C40.4308 103.77 40.5252 104.37 40.5252 105.082V105.58H34.6389V104.565H39.3321C39.3321 104.134 39.2459 103.75 39.0735 103.412C38.9045 103.074 38.6625 102.807 38.3477 102.612C38.0361 102.416 37.6682 102.318 37.244 102.318C36.7767 102.318 36.3723 102.434 36.0309 102.666C35.6928 102.895 35.4327 103.193 35.2504 103.561C35.0681 103.929 34.9769 104.323 34.9769 104.744V105.42C34.9769 105.997 35.0764 106.486 35.2752 106.887C35.4774 107.285 35.7575 107.588 36.1154 107.797C36.4734 108.002 36.8893 108.105 37.3633 108.105C37.6715 108.105 37.95 108.062 38.1985 107.976C38.4504 107.886 38.6675 107.754 38.8498 107.578C39.0321 107.399 39.173 107.177 39.2724 106.912L40.4059 107.23C40.2866 107.615 40.0861 107.953 39.8044 108.244C39.5226 108.533 39.1746 108.758 38.7603 108.92C38.346 109.08 37.8803 109.159 37.3633 109.159ZM45.1323 109.159C44.4164 109.159 43.7999 108.99 43.2829 108.652C42.7658 108.314 42.3681 107.848 42.0897 107.255C41.8113 106.662 41.6721 105.984 41.6721 105.222C41.6721 104.446 41.8146 103.762 42.0996 103.168C42.388 102.572 42.789 102.106 43.3028 101.771C43.8198 101.433 44.423 101.264 45.1124 101.264C45.6494 101.264 46.1333 101.364 46.5641 101.562C46.995 101.761 47.348 102.04 47.6231 102.398C47.8982 102.756 48.0689 103.173 48.1351 103.651H46.9619C46.8724 103.303 46.6735 102.994 46.3653 102.726C46.0603 102.454 45.6494 102.318 45.1323 102.318C44.6749 102.318 44.2739 102.437 43.9292 102.676C43.5878 102.911 43.321 103.245 43.1288 103.675C42.9398 104.103 42.8454 104.605 42.8454 105.182C42.8454 105.772 42.9382 106.286 43.1238 106.723C43.3127 107.161 43.5779 107.5 43.9192 107.742C44.2639 107.984 44.6683 108.105 45.1323 108.105C45.4372 108.105 45.714 108.052 45.9626 107.946C46.2111 107.84 46.4216 107.688 46.594 107.489C46.7663 107.29 46.8889 107.051 46.9619 106.773H48.1351C48.0689 107.223 47.9048 107.629 47.643 107.991C47.3844 108.349 47.0414 108.634 46.6138 108.846C46.1896 109.055 45.6958 109.159 45.1323 109.159ZM50.326 111.864C50.1272 111.864 49.9498 111.847 49.7941 111.814C49.6383 111.784 49.5306 111.754 49.4709 111.724L49.7692 110.69C50.0542 110.763 50.3061 110.79 50.5249 110.77C50.7436 110.75 50.9375 110.652 51.1066 110.477C51.2789 110.304 51.4364 110.024 51.5789 109.636L51.7976 109.04L48.9738 101.364H50.2465L52.3544 107.449H52.434L54.5419 101.364H55.8147L52.5732 110.114C52.4274 110.508 52.2467 110.835 52.0313 111.093C51.8159 111.355 51.5656 111.549 51.2806 111.675C50.9989 111.801 50.6807 111.864 50.326 111.864ZM59.9122 109.159C59.1962 109.159 58.5798 108.99 58.0627 108.652C57.5457 108.314 57.1479 107.848 56.8695 107.255C56.5911 106.662 56.4519 105.984 56.4519 105.222C56.4519 104.446 56.5944 103.762 56.8795 103.168C57.1678 102.572 57.5689 102.106 58.0826 101.771C58.5997 101.433 59.2029 101.264 59.8923 101.264C60.4292 101.264 60.9131 101.364 61.344 101.562C61.7748 101.761 62.1278 102.04 62.4029 102.398C62.678 102.756 62.8487 103.173 62.915 103.651H61.7417C61.6522 103.303 61.4533 102.994 61.1451 102.726C60.8402 102.454 60.4292 102.318 59.9122 102.318C59.4548 102.318 59.0537 102.437 58.709 102.676C58.3676 102.911 58.1008 103.245 57.9086 103.675C57.7197 104.103 57.6252 104.605 57.6252 105.182C57.6252 105.772 57.718 106.286 57.9036 106.723C58.0925 107.161 58.3577 107.5 58.6991 107.742C59.0438 107.984 59.4481 108.105 59.9122 108.105C60.2171 108.105 60.4938 108.052 60.7424 107.946C60.991 107.84 61.2015 107.688 61.3738 107.489C61.5461 107.29 61.6688 107.051 61.7417 106.773H62.915C62.8487 107.223 62.6846 107.629 62.4228 107.991C62.1643 108.349 61.8212 108.634 61.3937 108.846C60.9694 109.055 60.4756 109.159 59.9122 109.159ZM65.5235 98.8182V109H64.3502V98.8182H65.5235ZM70.5942 109.159C69.8584 109.159 69.2237 108.997 68.69 108.672C68.1597 108.344 67.7504 107.886 67.4621 107.3C67.177 106.71 67.0345 106.024 67.0345 105.241C67.0345 104.459 67.177 103.77 67.4621 103.173C67.7504 102.573 68.1515 102.106 68.6652 101.771C69.1822 101.433 69.7854 101.264 70.4748 101.264C70.8726 101.264 71.2653 101.33 71.6531 101.463C72.0409 101.596 72.3939 101.811 72.7121 102.109C73.0302 102.404 73.2838 102.795 73.4727 103.283C73.6616 103.77 73.7561 104.37 73.7561 105.082V105.58H67.8697V104.565H72.5629C72.5629 104.134 72.4767 103.75 72.3044 103.412C72.1354 103.074 71.8934 102.807 71.5785 102.612C71.267 102.416 70.8991 102.318 70.4748 102.318C70.0075 102.318 69.6032 102.434 69.2618 102.666C68.9237 102.895 68.6635 103.193 68.4812 103.561C68.2989 103.929 68.2078 104.323 68.2078 104.744V105.42C68.2078 105.997 68.3072 106.486 68.5061 106.887C68.7083 107.285 68.9883 107.588 69.3463 107.797C69.7042 108.002 70.1202 108.105 70.5942 108.105C70.9024 108.105 71.1808 108.062 71.4294 107.976C71.6813 107.886 71.8984 107.754 72.0807 107.578C72.263 107.399 72.4038 107.177 72.5033 106.912L73.6368 107.23C73.5175 107.615 73.3169 107.953 73.0352 108.244C72.7535 108.533 72.4055 108.758 71.9912 108.92C71.5769 109.08 71.1112 109.159 70.5942 109.159Z" fill="#8492A7"/>
<path d="M19.233 146V135.818H22.6733C23.4721 135.818 24.125 135.962 24.6321 136.251C25.1425 136.536 25.5204 136.922 25.7656 137.409C26.0109 137.896 26.1335 138.44 26.1335 139.04C26.1335 139.64 26.0109 140.185 25.7656 140.675C25.5237 141.166 25.1491 141.557 24.642 141.849C24.1349 142.137 23.4853 142.281 22.6932 142.281H20.2273V141.188H22.6534C23.2003 141.188 23.6394 141.093 23.9709 140.904C24.3023 140.715 24.5426 140.46 24.6918 140.138C24.8442 139.814 24.9205 139.447 24.9205 139.04C24.9205 138.632 24.8442 138.268 24.6918 137.946C24.5426 137.625 24.3007 137.373 23.9659 137.19C23.6312 137.005 23.187 136.912 22.6335 136.912H20.4659V146H19.233ZM27.6806 146V138.364H28.8141V139.517H28.8937C29.0329 139.139 29.2847 138.833 29.6493 138.597C30.0139 138.362 30.4249 138.244 30.8823 138.244C30.9685 138.244 31.0762 138.246 31.2054 138.249C31.3347 138.253 31.4325 138.258 31.4988 138.264V139.457C31.459 139.447 31.3678 139.433 31.2253 139.413C31.0861 139.389 30.9386 139.378 30.7829 139.378C30.4116 139.378 30.0802 139.456 29.7885 139.612C29.5002 139.764 29.2715 139.976 29.1025 140.248C28.9367 140.516 28.8539 140.823 28.8539 141.168V146H27.6806ZM35.4794 146.159C34.79 146.159 34.1851 145.995 33.6648 145.667C33.1477 145.339 32.7434 144.88 32.4517 144.29C32.1634 143.7 32.0192 143.01 32.0192 142.222C32.0192 141.426 32.1634 140.732 32.4517 140.138C32.7434 139.545 33.1477 139.085 33.6648 138.756C34.1851 138.428 34.79 138.264 35.4794 138.264C36.1688 138.264 36.772 138.428 37.2891 138.756C37.8094 139.085 38.2138 139.545 38.5021 140.138C38.7938 140.732 38.9396 141.426 38.9396 142.222C38.9396 143.01 38.7938 143.7 38.5021 144.29C38.2138 144.88 37.8094 145.339 37.2891 145.667C36.772 145.995 36.1688 146.159 35.4794 146.159ZM35.4794 145.105C36.0031 145.105 36.434 144.971 36.772 144.702C37.1101 144.434 37.3603 144.081 37.5227 143.643C37.6851 143.206 37.7663 142.732 37.7663 142.222C37.7663 141.711 37.6851 141.236 37.5227 140.795C37.3603 140.354 37.1101 139.998 36.772 139.726C36.434 139.454 36.0031 139.318 35.4794 139.318C34.9557 139.318 34.5249 139.454 34.1868 139.726C33.8487 139.998 33.5985 140.354 33.4361 140.795C33.2737 141.236 33.1925 141.711 33.1925 142.222C33.1925 142.732 33.2737 143.206 33.4361 143.643C33.5985 144.081 33.8487 144.434 34.1868 144.702C34.5249 144.971 34.9557 145.105 35.4794 145.105ZM40.4507 138.364H41.624V146.557C41.624 147.027 41.5428 147.435 41.3803 147.78C41.2213 148.125 40.9793 148.391 40.6545 148.58C40.333 148.769 39.927 148.864 39.4365 148.864C39.3967 148.864 39.3569 148.864 39.3171 148.864C39.2774 148.864 39.2376 148.864 39.1978 148.864V147.77C39.2376 147.77 39.2741 147.77 39.3072 147.77C39.3403 147.77 39.3768 147.77 39.4166 147.77C39.7745 147.77 40.0364 147.664 40.2021 147.452C40.3678 147.243 40.4507 146.945 40.4507 146.557V138.364ZM41.0274 137.091C40.7987 137.091 40.6015 137.013 40.4357 136.857C40.2733 136.701 40.1921 136.514 40.1921 136.295C40.1921 136.077 40.2733 135.889 40.4357 135.734C40.6015 135.578 40.7987 135.5 41.0274 135.5C41.2561 135.5 41.4516 135.578 41.614 135.734C41.7797 135.889 41.8626 136.077 41.8626 136.295C41.8626 136.514 41.7797 136.701 41.614 136.857C41.4516 137.013 41.2561 137.091 41.0274 137.091ZM46.6946 146.159C45.9588 146.159 45.3241 145.997 44.7905 145.672C44.2602 145.344 43.8509 144.886 43.5625 144.3C43.2775 143.71 43.135 143.024 43.135 142.241C43.135 141.459 43.2775 140.77 43.5625 140.173C43.8509 139.573 44.2519 139.106 44.7657 138.771C45.2827 138.433 45.8859 138.264 46.5753 138.264C46.973 138.264 47.3658 138.33 47.7536 138.463C48.1414 138.596 48.4943 138.811 48.8125 139.109C49.1307 139.404 49.3843 139.795 49.5732 140.283C49.7621 140.77 49.8566 141.37 49.8566 142.082V142.58H43.9702V141.565H48.6634C48.6634 141.134 48.5772 140.75 48.4049 140.412C48.2358 140.074 47.9939 139.807 47.679 139.612C47.3675 139.416 46.9996 139.318 46.5753 139.318C46.108 139.318 45.7036 139.434 45.3622 139.666C45.0242 139.895 44.764 140.193 44.5817 140.561C44.3994 140.929 44.3083 141.323 44.3083 141.744V142.42C44.3083 142.997 44.4077 143.486 44.6066 143.887C44.8087 144.285 45.0888 144.588 45.4468 144.797C45.8047 145.002 46.2207 145.105 46.6946 145.105C47.0029 145.105 47.2813 145.062 47.5299 144.976C47.7818 144.886 47.9988 144.754 48.1811 144.578C48.3634 144.399 48.5043 144.177 48.6037 143.912L49.7372 144.23C49.6179 144.615 49.4174 144.953 49.1357 145.244C48.854 145.533 48.5059 145.758 48.0916 145.92C47.6773 146.08 47.2117 146.159 46.6946 146.159ZM54.4636 146.159C53.7477 146.159 53.1312 145.99 52.6142 145.652C52.0972 145.314 51.6994 144.848 51.421 144.255C51.1426 143.662 51.0034 142.984 51.0034 142.222C51.0034 141.446 51.1459 140.762 51.431 140.168C51.7193 139.572 52.1204 139.106 52.6341 138.771C53.1511 138.433 53.7544 138.264 54.4437 138.264C54.9807 138.264 55.4646 138.364 55.8955 138.562C56.3263 138.761 56.6793 139.04 56.9544 139.398C57.2295 139.756 57.4002 140.173 57.4665 140.651H56.2932C56.2037 140.303 56.0048 139.994 55.6966 139.726C55.3917 139.454 54.9807 139.318 54.4636 139.318C54.0062 139.318 53.6052 139.437 53.2605 139.676C52.9191 139.911 52.6523 140.245 52.4601 140.675C52.2712 141.103 52.1767 141.605 52.1767 142.182C52.1767 142.772 52.2695 143.286 52.4551 143.723C52.644 144.161 52.9092 144.5 53.2506 144.742C53.5953 144.984 53.9996 145.105 54.4636 145.105C54.7686 145.105 55.0453 145.052 55.2939 144.946C55.5425 144.84 55.7529 144.688 55.9253 144.489C56.0976 144.29 56.2203 144.051 56.2932 143.773H57.4665C57.4002 144.223 57.2361 144.629 56.9743 144.991C56.7158 145.349 56.3727 145.634 55.9452 145.846C55.5209 146.055 55.0271 146.159 54.4636 146.159ZM62.2227 138.364V139.358H58.2653V138.364H62.2227ZM59.4187 136.534H60.592V143.812C60.592 144.144 60.6401 144.393 60.7362 144.558C60.8356 144.721 60.9616 144.83 61.114 144.886C61.2698 144.939 61.4339 144.966 61.6062 144.966C61.7355 144.966 61.8415 144.959 61.9244 144.946C62.0073 144.929 62.0736 144.916 62.1233 144.906L62.3619 145.96C62.2824 145.99 62.1713 146.02 62.0288 146.05C61.8863 146.083 61.7057 146.099 61.4869 146.099C61.1555 146.099 60.8307 146.028 60.5125 145.886C60.1976 145.743 59.9358 145.526 59.727 145.234C59.5215 144.943 59.4187 144.575 59.4187 144.131V136.534ZM68.5384 141.406V146H67.3651V135.818H68.5384V139.557H68.6378C68.8168 139.162 69.0853 138.849 69.4432 138.617C69.8045 138.382 70.2851 138.264 70.885 138.264C71.4054 138.264 71.8611 138.369 72.2522 138.577C72.6433 138.783 72.9466 139.099 73.162 139.527C73.3807 139.951 73.4901 140.491 73.4901 141.148V146H72.3168V141.227C72.3168 140.621 72.1594 140.152 71.8445 139.82C71.533 139.486 71.1004 139.318 70.5469 139.318C70.1625 139.318 69.8178 139.399 69.5128 139.562C69.2112 139.724 68.9726 139.961 68.7969 140.273C68.6246 140.584 68.5384 140.962 68.5384 141.406ZM75.3566 146V138.364H76.5299V146H75.3566ZM75.9532 137.091C75.7245 137.091 75.5273 137.013 75.3616 136.857C75.1992 136.701 75.118 136.514 75.118 136.295C75.118 136.077 75.1992 135.889 75.3616 135.734C75.5273 135.578 75.7245 135.5 75.9532 135.5C76.1819 135.5 76.3774 135.578 76.5398 135.734C76.7056 135.889 76.7884 136.077 76.7884 136.295C76.7884 136.514 76.7056 136.701 76.5398 136.857C76.3774 137.013 76.1819 137.091 75.9532 137.091ZM81.6006 146.159C80.8648 146.159 80.2301 145.997 79.6964 145.672C79.1661 145.344 78.7568 144.886 78.4685 144.3C78.1834 143.71 78.0409 143.024 78.0409 142.241C78.0409 141.459 78.1834 140.77 78.4685 140.173C78.7568 139.573 79.1579 139.106 79.6716 138.771C80.1886 138.433 80.7919 138.264 81.4813 138.264C81.879 138.264 82.2717 138.33 82.6595 138.463C83.0473 138.596 83.4003 138.811 83.7185 139.109C84.0366 139.404 84.2902 139.795 84.4791 140.283C84.668 140.77 84.7625 141.37 84.7625 142.082V142.58H78.8761V141.565H83.5693C83.5693 141.134 83.4831 140.75 83.3108 140.412C83.1418 140.074 82.8998 139.807 82.5849 139.612C82.2734 139.416 81.9055 139.318 81.4813 139.318C81.0139 139.318 80.6096 139.434 80.2682 139.666C79.9301 139.895 79.6699 140.193 79.4876 140.561C79.3054 140.929 79.2142 141.323 79.2142 141.744V142.42C79.2142 142.997 79.3136 143.486 79.5125 143.887C79.7147 144.285 79.9947 144.588 80.3527 144.797C80.7107 145.002 81.1266 145.105 81.6006 145.105C81.9088 145.105 82.1872 145.062 82.4358 144.976C82.6877 144.886 82.9048 144.754 83.0871 144.578C83.2694 144.399 83.4102 144.177 83.5097 143.912L84.6432 144.23C84.5239 144.615 84.3233 144.953 84.0416 145.244C83.7599 145.533 83.4119 145.758 82.9976 145.92C82.5833 146.08 82.1176 146.159 81.6006 146.159ZM86.2673 146V138.364H87.4008V139.517H87.4804C87.6196 139.139 87.8715 138.833 88.236 138.597C88.6006 138.362 89.0116 138.244 89.469 138.244C89.5552 138.244 89.6629 138.246 89.7922 138.249C89.9214 138.253 90.0192 138.258 90.0855 138.264V139.457C90.0457 139.447 89.9546 139.433 89.812 139.413C89.6728 139.389 89.5253 139.378 89.3696 139.378C88.9984 139.378 88.6669 139.456 88.3753 139.612C88.0869 139.764 87.8582 139.976 87.6892 140.248C87.5235 140.516 87.4406 140.823 87.4406 141.168V146H86.2673ZM93.4434 146.179C92.9595 146.179 92.5204 146.088 92.126 145.906C91.7316 145.72 91.4183 145.453 91.1863 145.105C90.9543 144.754 90.8383 144.33 90.8383 143.832C90.8383 143.395 90.9245 143.04 91.0969 142.768C91.2692 142.493 91.4996 142.278 91.7879 142.122C92.0763 141.966 92.3944 141.85 92.7424 141.774C93.0938 141.695 93.4468 141.632 93.8014 141.585C94.2654 141.526 94.6416 141.481 94.9299 141.451C95.2216 141.418 95.4337 141.363 95.5663 141.287C95.7022 141.211 95.7701 141.078 95.7701 140.889V140.849C95.7701 140.359 95.6359 139.978 95.3674 139.706C95.1023 139.434 94.6996 139.298 94.1594 139.298C93.5992 139.298 93.1601 139.421 92.8419 139.666C92.5237 139.911 92.3 140.173 92.1707 140.452L91.0571 140.054C91.2559 139.59 91.5211 139.229 91.8525 138.97C92.1873 138.708 92.5519 138.526 92.9463 138.423C93.344 138.317 93.7351 138.264 94.1196 138.264C94.3648 138.264 94.6466 138.294 94.9648 138.354C95.2862 138.41 95.5961 138.528 95.8944 138.707C96.196 138.886 96.4463 139.156 96.6451 139.517C96.844 139.878 96.9434 140.362 96.9434 140.969V146H95.7701V144.966H95.7105C95.6309 145.132 95.4984 145.309 95.3128 145.498C95.1272 145.687 94.8802 145.848 94.572 145.98C94.2638 146.113 93.8876 146.179 93.4434 146.179ZM93.6224 145.125C94.0864 145.125 94.4775 145.034 94.7957 144.852C95.1172 144.669 95.3592 144.434 95.5216 144.146C95.6873 143.857 95.7701 143.554 95.7701 143.236V142.162C95.7204 142.222 95.6111 142.276 95.442 142.326C95.2763 142.372 95.0841 142.414 94.8653 142.45C94.6499 142.483 94.4394 142.513 94.2339 142.54C94.0317 142.563 93.8677 142.583 93.7417 142.599C93.4368 142.639 93.1518 142.704 92.8866 142.793C92.6248 142.879 92.4127 143.01 92.2503 143.186C92.0912 143.358 92.0116 143.594 92.0116 143.892C92.0116 144.3 92.1624 144.608 92.464 144.817C92.769 145.022 93.1551 145.125 93.6224 145.125ZM98.805 146V138.364H99.9385V139.517H100.018C100.157 139.139 100.409 138.833 100.774 138.597C101.138 138.362 101.549 138.244 102.007 138.244C102.093 138.244 102.201 138.246 102.33 138.249C102.459 138.253 102.557 138.258 102.623 138.264V139.457C102.583 139.447 102.492 139.433 102.35 139.413C102.21 139.389 102.063 139.378 101.907 139.378C101.536 139.378 101.205 139.456 100.913 139.612C100.625 139.764 100.396 139.976 100.227 140.248C100.061 140.516 99.9783 140.823 99.9783 141.168V146H98.805ZM106.604 146.159C105.888 146.159 105.271 145.99 104.754 145.652C104.237 145.314 103.84 144.848 103.561 144.255C103.283 143.662 103.144 142.984 103.144 142.222C103.144 141.446 103.286 140.762 103.571 140.168C103.859 139.572 104.261 139.106 104.774 138.771C105.291 138.433 105.895 138.264 106.584 138.264C107.121 138.264 107.605 138.364 108.036 138.562C108.466 138.761 108.819 139.04 109.095 139.398C109.37 139.756 109.54 140.173 109.607 140.651H108.433C108.344 140.303 108.145 139.994 107.837 139.726C107.532 139.454 107.121 139.318 106.604 139.318C106.146 139.318 105.745 139.437 105.401 139.676C105.059 139.911 104.792 140.245 104.6 140.675C104.411 141.103 104.317 141.605 104.317 142.182C104.317 142.772 104.41 143.286 104.595 143.723C104.784 144.161 105.049 144.5 105.391 144.742C105.735 144.984 106.14 145.105 106.604 145.105C106.909 145.105 107.185 145.052 107.434 144.946C107.683 144.84 107.893 144.688 108.065 144.489C108.238 144.29 108.36 144.051 108.433 143.773H109.607C109.54 144.223 109.376 144.629 109.114 144.991C108.856 145.349 108.513 145.634 108.085 145.846C107.661 146.055 107.167 146.159 106.604 146.159ZM112.215 141.406V146H111.042V135.818H112.215V139.557H112.315C112.494 139.162 112.762 138.849 113.12 138.617C113.481 138.382 113.962 138.264 114.562 138.264C115.082 138.264 115.538 138.369 115.929 138.577C116.32 138.783 116.623 139.099 116.839 139.527C117.057 139.951 117.167 140.491 117.167 141.148V146H115.994V141.227C115.994 140.621 115.836 140.152 115.521 139.82C115.21 139.486 114.777 139.318 114.224 139.318C113.839 139.318 113.494 139.399 113.19 139.562C112.888 139.724 112.649 139.961 112.474 140.273C112.301 140.584 112.215 140.962 112.215 141.406ZM119.516 148.864C119.317 148.864 119.139 148.847 118.984 148.814C118.828 148.784 118.72 148.754 118.66 148.724L118.959 147.69C119.244 147.763 119.496 147.79 119.714 147.77C119.933 147.75 120.127 147.652 120.296 147.477C120.468 147.304 120.626 147.024 120.768 146.636L120.987 146.04L118.163 138.364H119.436L121.544 144.449H121.624L123.731 138.364H125.004L121.763 147.114C121.617 147.508 121.436 147.835 121.221 148.093C121.005 148.355 120.755 148.549 120.47 148.675C120.188 148.801 119.87 148.864 119.516 148.864Z" fill="#8492A7"/>
<path d="M24.8011 175.364C24.7415 174.86 24.4995 174.469 24.0753 174.19C23.651 173.912 23.1307 173.773 22.5142 173.773C22.0634 173.773 21.669 173.846 21.331 173.991C20.9962 174.137 20.7344 174.338 20.5455 174.593C20.3598 174.848 20.267 175.138 20.267 175.463C20.267 175.735 20.3317 175.969 20.4609 176.164C20.5935 176.356 20.7625 176.517 20.968 176.646C21.1735 176.772 21.389 176.877 21.6143 176.96C21.8397 177.039 22.0469 177.104 22.2358 177.153L23.2699 177.432C23.535 177.501 23.83 177.598 24.1548 177.72C24.483 177.843 24.7962 178.01 25.0945 178.222C25.3961 178.431 25.6446 178.7 25.8402 179.028C26.0357 179.356 26.1335 179.759 26.1335 180.236C26.1335 180.786 25.9893 181.283 25.701 181.727C25.416 182.171 24.9983 182.524 24.4482 182.786C23.9013 183.048 23.2367 183.179 22.4545 183.179C21.7254 183.179 21.094 183.061 20.5604 182.826C20.0301 182.591 19.6125 182.263 19.3075 181.842C19.0059 181.421 18.8352 180.932 18.7955 180.375H20.0682C20.1013 180.759 20.2306 181.078 20.456 181.33C20.6847 181.578 20.973 181.764 21.321 181.886C21.6723 182.006 22.0502 182.065 22.4545 182.065C22.9252 182.065 23.3478 181.989 23.7223 181.837C24.0968 181.681 24.3935 181.465 24.6122 181.19C24.831 180.912 24.9403 180.587 24.9403 180.216C24.9403 179.878 24.8459 179.603 24.657 179.391C24.468 179.179 24.2195 179.006 23.9112 178.874C23.603 178.741 23.2699 178.625 22.9119 178.526L21.6591 178.168C20.8636 177.939 20.2339 177.612 19.7699 177.188C19.3059 176.764 19.0739 176.209 19.0739 175.523C19.0739 174.953 19.228 174.455 19.5362 174.031C19.8478 173.604 20.2654 173.272 20.7891 173.037C21.3161 172.798 21.9044 172.679 22.554 172.679C23.2102 172.679 23.7936 172.797 24.304 173.032C24.8144 173.264 25.2188 173.582 25.517 173.987C25.8187 174.391 25.9777 174.85 25.9943 175.364H24.8011ZM31.0426 175.364V176.358H27.0852V175.364H31.0426ZM28.2386 173.534H29.4119V180.812C29.4119 181.144 29.46 181.393 29.5561 181.558C29.6555 181.721 29.7815 181.83 29.934 181.886C30.0897 181.939 30.2538 181.966 30.4261 181.966C30.5554 181.966 30.6615 181.959 30.7443 181.946C30.8272 181.929 30.8935 181.916 30.9432 181.906L31.1818 182.96C31.1023 182.99 30.9912 183.02 30.8487 183.05C30.7062 183.083 30.5256 183.099 30.3068 183.099C29.9754 183.099 29.6506 183.028 29.3324 182.886C29.0175 182.743 28.7557 182.526 28.5469 182.234C28.3414 181.943 28.2386 181.575 28.2386 181.131V173.534ZM35.6472 183.159C34.9114 183.159 34.2767 182.997 33.7431 182.672C33.2128 182.344 32.8035 181.886 32.5151 181.3C32.2301 180.71 32.0875 180.024 32.0875 179.241C32.0875 178.459 32.2301 177.77 32.5151 177.173C32.8035 176.573 33.2045 176.106 33.7182 175.771C34.2353 175.433 34.8385 175.264 35.5279 175.264C35.9256 175.264 36.3184 175.33 36.7062 175.463C37.0939 175.596 37.4469 175.811 37.7651 176.109C38.0833 176.404 38.3368 176.795 38.5258 177.283C38.7147 177.77 38.8091 178.37 38.8091 179.082V179.58H32.9228V178.565H37.616C37.616 178.134 37.5298 177.75 37.3574 177.412C37.1884 177.074 36.9465 176.807 36.6316 176.612C36.32 176.416 35.9521 176.318 35.5279 176.318C35.0606 176.318 34.6562 176.434 34.3148 176.666C33.9768 176.895 33.7166 177.193 33.5343 177.561C33.352 177.929 33.2608 178.323 33.2608 178.744V179.42C33.2608 179.997 33.3603 180.486 33.5591 180.887C33.7613 181.285 34.0414 181.588 34.3993 181.797C34.7573 182.002 35.1733 182.105 35.6472 182.105C35.9554 182.105 36.2339 182.062 36.4824 181.976C36.7343 181.886 36.9514 181.754 37.1337 181.578C37.316 181.399 37.4569 181.177 37.5563 180.912L38.6898 181.23C38.5705 181.615 38.37 181.953 38.0883 182.244C37.8065 182.533 37.4585 182.758 37.0442 182.92C36.6299 183.08 36.1643 183.159 35.6472 183.159ZM42.0441 183L39.7174 175.364H40.9503L42.6009 181.21H42.6804L44.3111 175.364H45.5639L47.1747 181.19H47.2543L48.9049 175.364H50.1378L47.8111 183H46.6577L44.9872 177.134H44.8679L43.1975 183H42.0441ZM53.6561 183.179C53.1722 183.179 52.733 183.088 52.3386 182.906C51.9442 182.72 51.631 182.453 51.399 182.105C51.167 181.754 51.051 181.33 51.051 180.832C51.051 180.395 51.1372 180.04 51.3095 179.768C51.4819 179.493 51.7122 179.278 52.0006 179.122C52.2889 178.966 52.6071 178.85 52.9551 178.774C53.3064 178.695 53.6594 178.632 54.0141 178.585C54.4781 178.526 54.8543 178.481 55.1426 178.451C55.4343 178.418 55.6464 178.363 55.779 178.287C55.9149 178.211 55.9828 178.078 55.9828 177.889V177.849C55.9828 177.359 55.8486 176.978 55.5801 176.706C55.315 176.434 54.9123 176.298 54.372 176.298C53.8119 176.298 53.3727 176.421 53.0545 176.666C52.7364 176.911 52.5126 177.173 52.3834 177.452L51.2697 177.054C51.4686 176.59 51.7338 176.229 52.0652 175.97C52.3999 175.708 52.7645 175.526 53.1589 175.423C53.5567 175.317 53.9478 175.264 54.3322 175.264C54.5775 175.264 54.8592 175.294 55.1774 175.354C55.4989 175.41 55.8088 175.528 56.1071 175.707C56.4087 175.886 56.6589 176.156 56.8578 176.517C57.0567 176.878 57.1561 177.362 57.1561 177.969V183H55.9828V181.966H55.9231C55.8436 182.132 55.711 182.309 55.5254 182.498C55.3398 182.687 55.0929 182.848 54.7847 182.98C54.4764 183.113 54.1002 183.179 53.6561 183.179ZM53.8351 182.125C54.2991 182.125 54.6902 182.034 55.0084 181.852C55.3299 181.669 55.5718 181.434 55.7342 181.146C55.8999 180.857 55.9828 180.554 55.9828 180.236V179.162C55.9331 179.222 55.8237 179.276 55.6547 179.326C55.489 179.372 55.2967 179.414 55.078 179.45C54.8625 179.483 54.6521 179.513 54.4466 179.54C54.2444 179.563 54.0803 179.583 53.9544 179.599C53.6495 179.639 53.3644 179.704 53.0993 179.793C52.8374 179.879 52.6253 180.01 52.4629 180.186C52.3038 180.358 52.2243 180.594 52.2243 180.892C52.2243 181.3 52.3751 181.608 52.6767 181.817C52.9816 182.022 53.3677 182.125 53.8351 182.125ZM59.0176 183V175.364H60.1511V176.517H60.2307C60.3699 176.139 60.6218 175.833 60.9864 175.597C61.3509 175.362 61.7619 175.244 62.2193 175.244C62.3055 175.244 62.4132 175.246 62.5425 175.249C62.6717 175.253 62.7695 175.258 62.8358 175.264V176.457C62.796 176.447 62.7049 176.433 62.5624 176.413C62.4232 176.389 62.2757 176.378 62.1199 176.378C61.7487 176.378 61.4172 176.456 61.1256 176.612C60.8372 176.764 60.6085 176.976 60.4395 177.248C60.2738 177.516 60.1909 177.823 60.1909 178.168V183H59.0176ZM66.5977 183.159C65.9613 183.159 65.3995 182.998 64.9123 182.677C64.4251 182.352 64.044 181.895 63.7689 181.305C63.4938 180.711 63.3562 180.01 63.3562 179.202C63.3562 178.4 63.4938 177.704 63.7689 177.114C64.044 176.524 64.4268 176.068 64.9173 175.746C65.4078 175.425 65.9746 175.264 66.6176 175.264C67.1147 175.264 67.5075 175.347 67.7959 175.513C68.0875 175.675 68.3096 175.861 68.462 176.07C68.6178 176.275 68.7388 176.444 68.825 176.577H68.9244V172.818H70.0977V183H68.9642V181.827H68.825C68.7388 181.966 68.6162 182.142 68.4571 182.354C68.298 182.562 68.0709 182.75 67.776 182.915C67.481 183.078 67.0882 183.159 66.5977 183.159ZM66.7568 182.105C67.2274 182.105 67.6252 181.982 67.95 181.737C68.2748 181.489 68.5217 181.146 68.6907 180.708C68.8598 180.267 68.9443 179.759 68.9443 179.182C68.9443 178.612 68.8614 178.113 68.6957 177.685C68.53 177.254 68.2847 176.92 67.9599 176.681C67.6351 176.439 67.2341 176.318 66.7568 176.318C66.2596 176.318 65.8453 176.446 65.5139 176.701C65.1858 176.953 64.9388 177.296 64.7731 177.73C64.6107 178.161 64.5295 178.645 64.5295 179.182C64.5295 179.725 64.6124 180.219 64.7781 180.663C64.9471 181.104 65.1957 181.455 65.5238 181.717C65.8553 181.976 66.2663 182.105 66.7568 182.105ZM77.5386 177.074L76.4846 177.372C76.4183 177.196 76.3205 177.026 76.1913 176.86C76.0653 176.691 75.893 176.552 75.6742 176.442C75.4555 176.333 75.1754 176.278 74.834 176.278C74.3667 176.278 73.9773 176.386 73.6657 176.602C73.3575 176.814 73.2034 177.084 73.2034 177.412C73.2034 177.704 73.3094 177.934 73.5215 178.103C73.7337 178.272 74.0651 178.413 74.5159 178.526L75.6494 178.804C76.3321 178.97 76.8409 179.223 77.1757 179.565C77.5104 179.903 77.6778 180.339 77.6778 180.872C77.6778 181.31 77.5518 181.701 77.2999 182.045C77.0514 182.39 76.7034 182.662 76.2559 182.861C75.8085 183.06 75.2881 183.159 74.6948 183.159C73.9159 183.159 73.2713 182.99 72.7609 182.652C72.2505 182.314 71.9273 181.82 71.7914 181.17L72.9051 180.892C73.0111 181.303 73.2116 181.611 73.5066 181.817C73.8049 182.022 74.1944 182.125 74.6749 182.125C75.2218 182.125 75.656 182.009 75.9775 181.777C76.3023 181.542 76.4647 181.26 76.4647 180.932C76.4647 180.667 76.3719 180.445 76.1863 180.266C76.0007 180.083 75.7157 179.947 75.3312 179.858L74.0585 179.56C73.3591 179.394 72.8454 179.137 72.5173 178.789C72.1925 178.438 72.0301 177.999 72.0301 177.472C72.0301 177.041 72.151 176.66 72.393 176.328C72.6382 175.997 72.9713 175.737 73.3923 175.548C73.8165 175.359 74.2971 175.264 74.834 175.264C75.5897 175.264 76.183 175.43 76.6139 175.761C77.0481 176.093 77.3563 176.53 77.5386 177.074ZM80.3372 178.406V183H79.1639V172.818H80.3372V176.557H80.4367C80.6156 176.162 80.8841 175.849 81.2421 175.617C81.6033 175.382 82.0839 175.264 82.6838 175.264C83.2042 175.264 83.6599 175.369 84.051 175.577C84.4421 175.783 84.7454 176.099 84.9608 176.527C85.1796 176.951 85.2889 177.491 85.2889 178.148V183H84.1156V178.227C84.1156 177.621 83.9582 177.152 83.6433 176.82C83.3318 176.486 82.8993 176.318 82.3458 176.318C81.9613 176.318 81.6166 176.399 81.3117 176.562C81.0101 176.724 80.7714 176.961 80.5958 177.273C80.4234 177.584 80.3372 177.962 80.3372 178.406ZM87.1554 183V175.364H88.3287V183H87.1554ZM87.752 174.091C87.5233 174.091 87.3261 174.013 87.1604 173.857C86.998 173.701 86.9168 173.514 86.9168 173.295C86.9168 173.077 86.998 172.889 87.1604 172.734C87.3261 172.578 87.5233 172.5 87.752 172.5C87.9807 172.5 88.1763 172.578 88.3387 172.734C88.5044 172.889 88.5872 173.077 88.5872 173.295C88.5872 173.514 88.5044 173.701 88.3387 173.857C88.1763 174.013 87.9807 174.091 87.752 174.091ZM90.1977 185.864V175.364H91.3312V176.577H91.4704C91.5566 176.444 91.6759 176.275 91.8284 176.07C91.9841 175.861 92.2062 175.675 92.4946 175.513C92.7862 175.347 93.1806 175.264 93.6778 175.264C94.3208 175.264 94.8876 175.425 95.3781 175.746C95.8686 176.068 96.2514 176.524 96.5265 177.114C96.8016 177.704 96.9392 178.4 96.9392 179.202C96.9392 180.01 96.8016 180.711 96.5265 181.305C96.2514 181.895 95.8703 182.352 95.3831 182.677C94.8958 182.998 94.3341 183.159 93.6977 183.159C93.2072 183.159 92.8144 183.078 92.5194 182.915C92.2244 182.75 91.9974 182.562 91.8383 182.354C91.6792 182.142 91.5566 181.966 91.4704 181.827H91.371V185.864H90.1977ZM91.3511 179.182C91.3511 179.759 91.4356 180.267 91.6046 180.708C91.7737 181.146 92.0206 181.489 92.3454 181.737C92.6702 181.982 93.068 182.105 93.5386 182.105C94.0291 182.105 94.4385 181.976 94.7666 181.717C95.098 181.455 95.3466 181.104 95.5123 180.663C95.6814 180.219 95.7659 179.725 95.7659 179.182C95.7659 178.645 95.683 178.161 95.5173 177.73C95.3549 177.296 95.108 176.953 94.7765 176.701C94.4484 176.446 94.0358 176.318 93.5386 176.318C93.0613 176.318 92.6603 176.439 92.3355 176.681C92.0107 176.92 91.7654 177.254 91.5997 177.685C91.434 178.113 91.3511 178.612 91.3511 179.182ZM105.427 175.364V176.358H101.47V175.364H105.427ZM102.623 173.534H103.797V180.812C103.797 181.144 103.845 181.393 103.941 181.558C104.04 181.721 104.166 181.83 104.319 181.886C104.475 181.939 104.639 181.966 104.811 181.966C104.94 181.966 105.046 181.959 105.129 181.946C105.212 181.929 105.278 181.916 105.328 181.906L105.567 182.96C105.487 182.99 105.376 183.02 105.234 183.05C105.091 183.083 104.91 183.099 104.692 183.099C104.36 183.099 104.035 183.028 103.717 182.886C103.402 182.743 103.141 182.526 102.932 182.234C102.726 181.943 102.623 181.575 102.623 181.131V173.534ZM109.16 183.179C108.676 183.179 108.236 183.088 107.842 182.906C107.448 182.72 107.134 182.453 106.902 182.105C106.67 181.754 106.554 181.33 106.554 180.832C106.554 180.395 106.641 180.04 106.813 179.768C106.985 179.493 107.216 179.278 107.504 179.122C107.792 178.966 108.111 178.85 108.459 178.774C108.81 178.695 109.163 178.632 109.517 178.585C109.982 178.526 110.358 178.481 110.646 178.451C110.938 178.418 111.15 178.363 111.282 178.287C111.418 178.211 111.486 178.078 111.486 177.889V177.849C111.486 177.359 111.352 176.978 111.084 176.706C110.818 176.434 110.416 176.298 109.875 176.298C109.315 176.298 108.876 176.421 108.558 176.666C108.24 176.911 108.016 177.173 107.887 177.452L106.773 177.054C106.972 176.59 107.237 176.229 107.569 175.97C107.903 175.708 108.268 175.526 108.662 175.423C109.06 175.317 109.451 175.264 109.836 175.264C110.081 175.264 110.363 175.294 110.681 175.354C111.002 175.41 111.312 175.528 111.611 175.707C111.912 175.886 112.162 176.156 112.361 176.517C112.56 176.878 112.66 177.362 112.66 177.969V183H111.486V181.966H111.427C111.347 182.132 111.214 182.309 111.029 182.498C110.843 182.687 110.596 182.848 110.288 182.98C109.98 183.113 109.604 183.179 109.16 183.179ZM109.339 182.125C109.803 182.125 110.194 182.034 110.512 181.852C110.833 181.669 111.075 181.434 111.238 181.146C111.403 180.857 111.486 180.554 111.486 180.236V179.162C111.437 179.222 111.327 179.276 111.158 179.326C110.992 179.372 110.8 179.414 110.581 179.45C110.366 179.483 110.156 179.513 109.95 179.54C109.748 179.563 109.584 179.583 109.458 179.599C109.153 179.639 108.868 179.704 108.603 179.793C108.341 179.879 108.129 180.01 107.966 180.186C107.807 180.358 107.728 180.594 107.728 180.892C107.728 181.3 107.879 181.608 108.18 181.817C108.485 182.022 108.871 182.125 109.339 182.125ZM114.68 183V172.818H115.853V176.577H115.953C116.039 176.444 116.158 176.275 116.311 176.07C116.467 175.861 116.689 175.675 116.977 175.513C117.269 175.347 117.663 175.264 118.16 175.264C118.803 175.264 119.37 175.425 119.861 175.746C120.351 176.068 120.734 176.524 121.009 177.114C121.284 177.704 121.422 178.4 121.422 179.202C121.422 180.01 121.284 180.711 121.009 181.305C120.734 181.895 120.353 182.352 119.866 182.677C119.378 182.998 118.817 183.159 118.18 183.159C117.69 183.159 117.297 183.078 117.002 182.915C116.707 182.75 116.48 182.562 116.321 182.354C116.162 182.142 116.039 181.966 115.953 181.827H115.814V183H114.68ZM115.834 179.182C115.834 179.759 115.918 180.267 116.087 180.708C116.256 181.146 116.503 181.489 116.828 181.737C117.153 181.982 117.55 182.105 118.021 182.105C118.512 182.105 118.921 181.976 119.249 181.717C119.58 181.455 119.829 181.104 119.995 180.663C120.164 180.219 120.248 179.725 120.248 179.182C120.248 178.645 120.165 178.161 120 177.73C119.837 177.296 119.59 176.953 119.259 176.701C118.931 176.446 118.518 176.318 118.021 176.318C117.544 176.318 117.143 176.439 116.818 176.681C116.493 176.92 116.248 177.254 116.082 177.685C115.916 178.113 115.834 178.612 115.834 179.182ZM124.11 172.818V183H122.936V172.818H124.11ZM129.18 183.159C128.445 183.159 127.81 182.997 127.276 182.672C126.746 182.344 126.337 181.886 126.048 181.3C125.763 180.71 125.621 180.024 125.621 179.241C125.621 178.459 125.763 177.77 126.048 177.173C126.337 176.573 126.738 176.106 127.251 175.771C127.768 175.433 128.372 175.264 129.061 175.264C129.459 175.264 129.851 175.33 130.239 175.463C130.627 175.596 130.98 175.811 131.298 176.109C131.616 176.404 131.87 176.795 132.059 177.283C132.248 177.77 132.342 178.37 132.342 179.082V179.58H126.456V178.565H131.149C131.149 178.134 131.063 177.75 130.891 177.412C130.722 177.074 130.48 176.807 130.165 176.612C129.853 176.416 129.485 176.318 129.061 176.318C128.594 176.318 128.189 176.434 127.848 176.666C127.51 176.895 127.25 177.193 127.067 177.561C126.885 177.929 126.794 178.323 126.794 178.744V179.42C126.794 179.997 126.893 180.486 127.092 180.887C127.294 181.285 127.575 181.588 127.932 181.797C128.29 182.002 128.706 182.105 129.18 182.105C129.489 182.105 129.767 182.062 130.016 181.976C130.267 181.886 130.485 181.754 130.667 181.578C130.849 181.399 130.99 181.177 131.089 180.912L132.223 181.23C132.104 181.615 131.903 181.953 131.621 182.244C131.34 182.533 130.992 182.758 130.577 182.92C130.163 183.08 129.697 183.159 129.18 183.159Z" fill="#8492A7"/>
<mask id="path-51-outside-4_122_712" maskUnits="userSpaceOnUse" x="188" y="48" width="38" height="148" fill="black">
<rect fill="white" x="188" y="48" width="38" height="148"/>
<path d="M188 48H225V196H188V48Z"/>
</mask>
<path d="M188 48H225V196H188V48Z" fill="white"/>
<path d="M224 48V196H226V48H224Z" fill="#E8E8E8" mask="url(#path-51-outside-4_122_712)"/>
<rect x="188" y="48" width="37" height="37" fill="#F7F8FA"/>
<rect x="188" y="85" width="37" height="37" fill="#F7F8FA"/>
<rect x="188" y="122" width="37" height="37" fill="#F7F8FA"/>
<rect x="188" y="159" width="37" height="37" fill="#F7F8FA"/>
<mask id="path-57-outside-5_122_712" maskUnits="userSpaceOnUse" x="225" y="48" width="38" height="148" fill="black">
<rect fill="white" x="225" y="48" width="38" height="148"/>
<path d="M225 48H262V196H225V48Z"/>
</mask>
<path d="M225 48H262V196H225V48Z" fill="white"/>
<path d="M261 48V196H263V48H261Z" fill="#E8E8E8" mask="url(#path-57-outside-5_122_712)"/>
<rect x="225" y="48" width="37" height="37" fill="white"/>
<rect x="225" y="85" width="37" height="37" fill="white"/>
<rect x="225" y="122" width="37" height="37" fill="white"/>
<rect x="225" y="159" width="37" height="37" fill="white"/>
<mask id="path-63-outside-6_122_712" maskUnits="userSpaceOnUse" x="262" y="48" width="38" height="148" fill="black">
<rect fill="white" x="262" y="48" width="38" height="148"/>
<path d="M262 48H299V196H262V48Z"/>
</mask>
<path d="M262 48H299V196H262V48Z" fill="white"/>
<path d="M298 48V196H300V48H298Z" fill="#E8E8E8" mask="url(#path-63-outside-6_122_712)"/>
<rect x="262" y="48" width="37" height="37" fill="#F7F8FA"/>
<rect x="262" y="85" width="37" height="37" fill="#F7F8FA"/>
<rect x="262" y="122" width="37" height="37" fill="#F7F8FA"/>
<rect x="262" y="159" width="37" height="37" fill="#F7F8FA"/>
<mask id="path-69-outside-7_122_712" maskUnits="userSpaceOnUse" x="299" y="48" width="38" height="148" fill="black">
<rect fill="white" x="299" y="48" width="38" height="148"/>
<path d="M299 48H336V196H299V48Z"/>
</mask>
<path d="M299 48H336V196H299V48Z" fill="white"/>
<path d="M335 48V196H337V48H335Z" fill="#E8E8E8" mask="url(#path-69-outside-7_122_712)"/>
<rect x="299" y="48" width="37" height="37" fill="white"/>
<rect x="299" y="85" width="37" height="37" fill="white"/>
<rect x="299" y="122" width="37" height="37" fill="white"/>
<rect x="299" y="159" width="37" height="37" fill="white"/>
<mask id="path-75-outside-8_122_712" maskUnits="userSpaceOnUse" x="336" y="48" width="38" height="148" fill="black">
<rect fill="white" x="336" y="48" width="38" height="148"/>
<path d="M336 48H373V196H336V48Z"/>
</mask>
<path d="M336 48H373V196H336V48Z" fill="white"/>
<path d="M372 48V196H374V48H372Z" fill="#E8E8E8" mask="url(#path-75-outside-8_122_712)"/>
<rect x="336" y="48" width="37" height="37" fill="#F7F8FA"/>
<rect x="336" y="85" width="37" height="37" fill="#F7F8FA"/>
<rect x="336" y="122" width="37" height="37" fill="#F7F8FA"/>
<rect x="336" y="159" width="37" height="37" fill="#F7F8FA"/>
<mask id="path-81-outside-9_122_712" maskUnits="userSpaceOnUse" x="373" y="48" width="38" height="148" fill="black">
<rect fill="white" x="373" y="48" width="38" height="148"/>
<path d="M373 48H410V196H373V48Z"/>
</mask>
<path d="M373 48H410V196H373V48Z" fill="white"/>
<path d="M409 48V196H411V48H409Z" fill="#E8E8E8" mask="url(#path-81-outside-9_122_712)"/>
<rect x="373" y="48" width="37" height="37" fill="white"/>
<rect x="373" y="85" width="37" height="37" fill="white"/>
<rect x="373" y="122" width="37" height="37" fill="white"/>
<rect x="373" y="159" width="37" height="37" fill="white"/>
<mask id="path-87-outside-10_122_712" maskUnits="userSpaceOnUse" x="410" y="48" width="38" height="148" fill="black">
<rect fill="white" x="410" y="48" width="38" height="148"/>
<path d="M410 48H447V196H410V48Z"/>
</mask>
<path d="M410 48H447V196H410V48Z" fill="white"/>
<path d="M446 48V196H448V48H446Z" fill="#E8E8E8" mask="url(#path-87-outside-10_122_712)"/>
<rect x="410" y="48" width="37" height="37" fill="#F7F8FA"/>
<rect x="410" y="85" width="37" height="37" fill="#F7F8FA"/>
<rect x="410" y="122" width="37" height="37" fill="#F7F8FA"/>
<rect x="410" y="159" width="37" height="37" fill="#F7F8FA"/>
<mask id="path-93-outside-11_122_712" maskUnits="userSpaceOnUse" x="447" y="48" width="38" height="148" fill="black">
<rect fill="white" x="447" y="48" width="38" height="148"/>
<path d="M447 48H484V196H447V48Z"/>
</mask>
<path d="M447 48H484V196H447V48Z" fill="white"/>
<path d="M483 48V196H485V48H483Z" fill="#E8E8E8" mask="url(#path-93-outside-11_122_712)"/>
<rect x="447" y="48" width="37" height="37" fill="white"/>
<rect x="447" y="85" width="37" height="37" fill="white"/>
<rect x="447" y="122" width="37" height="37" fill="white"/>
<rect x="447" y="159" width="37" height="37" fill="white"/>
<mask id="path-99-outside-12_122_712" maskUnits="userSpaceOnUse" x="484" y="48" width="38" height="148" fill="black">
<rect fill="white" x="484" y="48" width="38" height="148"/>
<path d="M484 48H521V196H484V48Z"/>
</mask>
<path d="M484 48H521V196H484V48Z" fill="white"/>
<path d="M520 48V196H522V48H520Z" fill="#E8E8E8" mask="url(#path-99-outside-12_122_712)"/>
<rect x="484" y="48" width="37" height="37" fill="#F7F8FA"/>
<rect x="484" y="85" width="37" height="37" fill="#F7F8FA"/>
<rect x="484" y="122" width="37" height="37" fill="#F7F8FA"/>
<rect x="484" y="159" width="37" height="37" fill="#F7F8FA"/>
<mask id="path-105-outside-13_122_712" maskUnits="userSpaceOnUse" x="521" y="48" width="38" height="148" fill="black">
<rect fill="white" x="521" y="48" width="38" height="148"/>
<path d="M521 48H558V196H521V48Z"/>
</mask>
<path d="M521 48H558V196H521V48Z" fill="white"/>
<path d="M557 48V196H559V48H557Z" fill="#E8E8E8" mask="url(#path-105-outside-13_122_712)"/>
<rect x="521" y="48" width="37" height="37" fill="white"/>
<rect x="521" y="85" width="37" height="37" fill="white"/>
<rect x="521" y="122" width="37" height="37" fill="white"/>
<rect x="521" y="159" width="37" height="37" fill="white"/>
<mask id="path-111-outside-14_122_712" maskUnits="userSpaceOnUse" x="558" y="48" width="38" height="148" fill="black">
<rect fill="white" x="558" y="48" width="38" height="148"/>
<path d="M558 48H595V196H558V48Z"/>
</mask>
<path d="M558 48H595V196H558V48Z" fill="white"/>
<path d="M594 48V196H596V48H594Z" fill="#E8E8E8" mask="url(#path-111-outside-14_122_712)"/>
<rect x="558" y="48" width="37" height="37" fill="#F7F8FA"/>
<rect x="558" y="85" width="37" height="37" fill="#F7F8FA"/>
<rect x="558" y="122" width="37" height="37" fill="#F7F8FA"/>
<rect x="558" y="159" width="37" height="37" fill="#F7F8FA"/>
<mask id="path-117-outside-15_122_712" maskUnits="userSpaceOnUse" x="595" y="48" width="38" height="148" fill="black">
<rect fill="white" x="595" y="48" width="38" height="148"/>
<path d="M595 48H632V196H595V48Z"/>
</mask>
<path d="M595 48H632V196H595V48Z" fill="white"/>
<path d="M631 48V196H633V48H631Z" fill="#E8E8E8" mask="url(#path-117-outside-15_122_712)"/>
<rect x="595" y="48" width="37" height="37" fill="white"/>
<rect x="595" y="85" width="37" height="37" fill="white"/>
<rect x="595" y="122" width="37" height="37" fill="white"/>
<rect x="595" y="159" width="37" height="37" fill="white"/>
<mask id="path-123-outside-16_122_712" maskUnits="userSpaceOnUse" x="632" y="48" width="38" height="148" fill="black">
<rect fill="white" x="632" y="48" width="38" height="148"/>
<path d="M632 48H669V196H632V48Z"/>
</mask>
<path d="M632 48H669V196H632V48Z" fill="white"/>
<path d="M668 48V196H670V48H668Z" fill="#E8E8E8" mask="url(#path-123-outside-16_122_712)"/>
<rect x="632" y="48" width="37" height="37" fill="#F7F8FA"/>
<rect x="632" y="85" width="37" height="37" fill="#F7F8FA"/>
<rect x="632" y="122" width="37" height="37" fill="#F7F8FA"/>
<rect x="632" y="159" width="37" height="37" fill="#F7F8FA"/>
<mask id="path-129-outside-17_122_712" maskUnits="userSpaceOnUse" x="669" y="48" width="38" height="148" fill="black">
<rect fill="white" x="669" y="48" width="38" height="148"/>
<path d="M669 48H706V196H669V48Z"/>
</mask>
<path d="M669 48H706V196H669V48Z" fill="white"/>
<path d="M705 48V196H707V48H705Z" fill="#E8E8E8" mask="url(#path-129-outside-17_122_712)"/>
<rect x="669" y="48" width="37" height="37" fill="white"/>
<rect x="669" y="85" width="37" height="37" fill="white"/>
<rect x="669" y="122" width="37" height="37" fill="white"/>
<rect x="669" y="159" width="37" height="37" fill="white"/>
<mask id="path-135-outside-18_122_712" maskUnits="userSpaceOnUse" x="706" y="48" width="38" height="148" fill="black">
<rect fill="white" x="706" y="48" width="38" height="148"/>
<path d="M706 48H743V196H706V48Z"/>
</mask>
<path d="M706 48H743V196H706V48Z" fill="white"/>
<path d="M742 48V196H744V48H742Z" fill="#E8E8E8" mask="url(#path-135-outside-18_122_712)"/>
<rect x="706" y="48" width="37" height="37" fill="#F7F8FA"/>
<rect x="706" y="85" width="37" height="37" fill="#F7F8FA"/>
<rect x="706" y="122" width="37" height="37" fill="#F7F8FA"/>
<rect x="706" y="159" width="37" height="37" fill="#F7F8FA"/>
<rect width="36" height="148" transform="translate(743 48)" fill="white"/>
<rect x="743" y="48" width="36" height="37" fill="white"/>
<rect x="743" y="85" width="36" height="37" fill="white"/>
<rect x="743" y="122" width="36" height="37" fill="white"/>
<rect x="743" y="159" width="36" height="37" fill="white"/>
<defs>
<clipPath id="clip0_122_712">
<rect width="591" height="47" fill="white" transform="translate(188 1)"/>
</clipPath>
<clipPath id="clip1_122_712">
<rect width="185" height="47" fill="white" transform="translate(743 1)"/>
</clipPath>
</defs>
</svg>
