<svg width="210" height="210" viewBox="0 0 210 210" fill="none" xmlns="http://www.w3.org/2000/svg">
<path d="M91.2003 157.199C90.3101 157.199 89.5099 157.028 88.7997 156.688C88.0942 156.342 87.5308 155.868 87.1094 155.267C86.688 154.666 86.4631 153.979 86.4347 153.207H88.5653C88.6174 153.832 88.8944 154.346 89.3963 154.749C89.8982 155.151 90.4995 155.352 91.2003 155.352C91.759 155.352 92.2538 155.224 92.6847 154.969C93.1203 154.708 93.4612 154.351 93.7074 153.896C93.9583 153.442 94.0838 152.923 94.0838 152.341C94.0838 151.749 93.956 151.221 93.7003 150.757C93.4446 150.293 93.0919 149.929 92.642 149.663C92.197 149.398 91.6856 149.263 91.108 149.259C90.6676 149.259 90.2249 149.334 89.7798 149.486C89.3348 149.637 88.9749 149.836 88.7003 150.082L86.6903 149.784L87.5071 142.455H95.5043V144.337H89.3324L88.8707 148.406H88.956C89.2401 148.132 89.6165 147.902 90.0852 147.717C90.5587 147.533 91.0653 147.44 91.6051 147.44C92.4905 147.44 93.2789 147.651 93.9702 148.072C94.6662 148.494 95.2131 149.069 95.6108 149.798C96.0133 150.523 96.2121 151.356 96.2074 152.298C96.2121 153.241 95.9991 154.081 95.5682 154.82C95.142 155.558 94.5502 156.141 93.7926 156.567C93.0398 156.988 92.1757 157.199 91.2003 157.199ZM103.465 157.241C102.343 157.237 101.384 156.941 100.589 156.354C99.7935 155.767 99.1851 154.912 98.7637 153.79C98.3423 152.668 98.1316 151.316 98.1316 149.734C98.1316 148.158 98.3423 146.811 98.7637 145.693C99.1898 144.576 99.8006 143.723 100.596 143.136C101.396 142.549 102.353 142.256 103.465 142.256C104.578 142.256 105.532 142.552 106.328 143.143C107.123 143.731 107.732 144.583 108.153 145.7C108.579 146.813 108.792 148.158 108.792 149.734C108.792 151.321 108.581 152.675 108.16 153.797C107.739 154.914 107.13 155.769 106.335 156.361C105.539 156.948 104.583 157.241 103.465 157.241ZM103.465 155.345C104.45 155.345 105.22 154.865 105.774 153.903C106.332 152.942 106.612 151.553 106.612 149.734C106.612 148.527 106.484 147.507 106.228 146.673C105.977 145.835 105.615 145.201 105.142 144.77C104.673 144.334 104.114 144.116 103.465 144.116C102.485 144.116 101.716 144.599 101.157 145.565C100.598 146.531 100.317 147.921 100.312 149.734C100.312 150.946 100.437 151.972 100.688 152.81C100.944 153.643 101.306 154.275 101.775 154.706C102.244 155.132 102.807 155.345 103.465 155.345ZM118.504 154.273V153.506C118.504 152.956 118.618 152.455 118.845 152C119.077 151.541 119.413 151.174 119.853 150.899C120.298 150.62 120.836 150.48 121.466 150.48C122.11 150.48 122.649 150.617 123.085 150.892C123.521 151.167 123.85 151.534 124.072 151.993C124.299 152.452 124.413 152.956 124.413 153.506V154.273C124.413 154.822 124.299 155.326 124.072 155.786C123.845 156.24 123.511 156.607 123.071 156.886C122.635 157.161 122.1 157.298 121.466 157.298C120.826 157.298 120.287 157.161 119.846 156.886C119.406 156.607 119.072 156.24 118.845 155.786C118.618 155.326 118.504 154.822 118.504 154.273ZM120.159 153.506V154.273C120.159 154.68 120.256 155.049 120.45 155.381C120.644 155.712 120.983 155.878 121.466 155.878C121.944 155.878 122.278 155.712 122.467 155.381C122.656 155.049 122.751 154.68 122.751 154.273V153.506C122.751 153.098 122.659 152.729 122.474 152.398C122.294 152.066 121.958 151.901 121.466 151.901C120.992 151.901 120.656 152.066 120.457 152.398C120.258 152.729 120.159 153.098 120.159 153.506ZM111.189 145.949V145.182C111.189 144.633 111.302 144.128 111.53 143.669C111.762 143.21 112.098 142.843 112.538 142.568C112.983 142.294 113.521 142.156 114.15 142.156C114.794 142.156 115.334 142.294 115.77 142.568C116.205 142.843 116.534 143.21 116.757 143.669C116.979 144.128 117.091 144.633 117.091 145.182V145.949C117.091 146.498 116.977 147.002 116.75 147.462C116.527 147.916 116.196 148.283 115.755 148.562C115.32 148.837 114.785 148.974 114.15 148.974C113.506 148.974 112.964 148.837 112.524 148.562C112.088 148.283 111.757 147.916 111.53 147.462C111.302 147.002 111.189 146.498 111.189 145.949ZM112.851 145.182V145.949C112.851 146.356 112.945 146.725 113.135 147.057C113.329 147.388 113.667 147.554 114.15 147.554C114.624 147.554 114.955 147.388 115.145 147.057C115.339 146.725 115.436 146.356 115.436 145.949V145.182C115.436 144.775 115.343 144.405 115.159 144.074C114.974 143.742 114.638 143.577 114.15 143.577C113.677 143.577 113.341 143.742 113.142 144.074C112.948 144.405 112.851 144.775 112.851 145.182ZM111.863 157L121.863 142.455H123.561L113.561 157H111.863Z" fill="black"/>
<path d="M64.75 131H62.0568V122.273H64.8693C65.7159 122.273 66.4403 122.447 67.0426 122.797C67.6449 123.143 68.1065 123.642 68.4276 124.293C68.7486 124.94 68.9091 125.716 68.9091 126.619C68.9091 127.528 68.7472 128.311 68.4233 128.967C68.0994 129.621 67.6278 130.124 67.0085 130.476C66.3892 130.825 65.6364 131 64.75 131ZM63.1136 130.062H64.6818C65.4034 130.062 66.0014 129.923 66.4759 129.645C66.9503 129.366 67.304 128.97 67.5369 128.456C67.7699 127.942 67.8864 127.33 67.8864 126.619C67.8864 125.915 67.7713 125.308 67.5412 124.8C67.3111 124.288 66.9673 123.896 66.5099 123.624C66.0526 123.348 65.483 123.21 64.8011 123.21H63.1136V130.062ZM70.9532 133.455C70.7827 133.455 70.6307 133.44 70.4972 133.412C70.3637 133.386 70.2714 133.361 70.2202 133.335L70.4759 132.449C70.7202 132.511 70.9361 132.534 71.1236 132.517C71.3111 132.5 71.4773 132.416 71.6222 132.266C71.7699 132.118 71.9049 131.878 72.027 131.545L72.2145 131.034L69.7941 124.455H70.885L72.6918 129.67H72.76L74.5668 124.455H75.6577L72.8793 131.955C72.7543 132.293 72.5995 132.572 72.4148 132.794C72.2302 133.018 72.0157 133.185 71.7714 133.293C71.5299 133.401 71.2572 133.455 70.9532 133.455ZM77.7508 127.062V131H76.7451V124.455H77.7167V125.477H77.802C77.9554 125.145 78.1883 124.878 78.5008 124.676C78.8133 124.472 79.2167 124.369 79.7111 124.369C80.1542 124.369 80.542 124.46 80.8744 124.642C81.2068 124.821 81.4653 125.094 81.65 125.46C81.8346 125.824 81.927 126.284 81.927 126.841V131H80.9213V126.909C80.9213 126.395 80.7878 125.994 80.5207 125.707C80.2537 125.418 79.8872 125.273 79.4213 125.273C79.1003 125.273 78.8133 125.342 78.5605 125.482C78.3105 125.621 78.113 125.824 77.9682 126.091C77.8233 126.358 77.7508 126.682 77.7508 127.062ZM85.4508 131.153C85.036 131.153 84.6596 131.075 84.3215 130.919C83.9835 130.76 83.715 130.531 83.5162 130.233C83.3173 129.932 83.2179 129.568 83.2179 129.142C83.2179 128.767 83.2917 128.463 83.4394 128.23C83.5872 127.994 83.7846 127.81 84.0318 127.676C84.2789 127.543 84.5517 127.443 84.85 127.378C85.1511 127.31 85.4537 127.256 85.7576 127.216C86.1554 127.165 86.4778 127.126 86.725 127.101C86.975 127.072 87.1568 127.026 87.2704 126.96C87.3869 126.895 87.4451 126.781 87.4451 126.619V126.585C87.4451 126.165 87.3301 125.838 87.1 125.605C86.8727 125.372 86.5275 125.256 86.0644 125.256C85.5843 125.256 85.2079 125.361 84.9352 125.571C84.6625 125.781 84.4707 126.006 84.3599 126.244L83.4054 125.903C83.5758 125.506 83.8031 125.196 84.0872 124.974C84.3741 124.75 84.6866 124.594 85.0247 124.506C85.3656 124.415 85.7008 124.369 86.0304 124.369C86.2406 124.369 86.4821 124.395 86.7548 124.446C87.0304 124.494 87.296 124.595 87.5517 124.749C87.8102 124.902 88.0247 125.134 88.1951 125.443C88.3656 125.753 88.4508 126.168 88.4508 126.688V131H87.4451V130.114H87.394C87.3258 130.256 87.2122 130.408 87.0531 130.57C86.894 130.732 86.6823 130.869 86.4181 130.983C86.1539 131.097 85.8315 131.153 85.4508 131.153ZM85.6042 130.25C86.0019 130.25 86.3372 130.172 86.6099 130.016C86.8855 129.859 87.0929 129.658 87.2321 129.411C87.3741 129.163 87.4451 128.903 87.4451 128.631V127.71C87.4025 127.761 87.3088 127.808 87.1639 127.851C87.0218 127.891 86.8571 127.926 86.6696 127.957C86.4849 127.986 86.3045 128.011 86.1284 128.034C85.9551 128.054 85.8144 128.071 85.7065 128.085C85.4451 128.119 85.2008 128.175 84.9735 128.251C84.7491 128.325 84.5673 128.437 84.4281 128.588C84.2917 128.736 84.2235 128.937 84.2235 129.193C84.2235 129.543 84.3528 129.807 84.6113 129.986C84.8727 130.162 85.2037 130.25 85.6042 130.25ZM90.0464 131V124.455H91.018V125.477H91.1032C91.2396 125.128 91.4597 124.857 91.7637 124.663C92.0677 124.467 92.4328 124.369 92.8589 124.369C93.2907 124.369 93.6501 124.467 93.937 124.663C94.2268 124.857 94.4526 125.128 94.6146 125.477H94.6828C94.8504 125.139 95.1018 124.871 95.437 124.672C95.7722 124.47 96.1742 124.369 96.643 124.369C97.2282 124.369 97.7069 124.553 98.0791 124.919C98.4512 125.283 98.6373 125.849 98.6373 126.619V131H97.6316V126.619C97.6316 126.136 97.4995 125.791 97.2353 125.584C96.9711 125.376 96.66 125.273 96.3021 125.273C95.8418 125.273 95.4853 125.412 95.2325 125.69C94.9796 125.966 94.8532 126.315 94.8532 126.739V131H93.8305V126.517C93.8305 126.145 93.7097 125.845 93.4683 125.618C93.2268 125.388 92.9157 125.273 92.535 125.273C92.2737 125.273 92.0293 125.342 91.8021 125.482C91.5776 125.621 91.3958 125.814 91.2566 126.061C91.1203 126.305 91.0521 126.588 91.0521 126.909V131H90.0464ZM100.236 131V124.455H101.242V131H100.236ZM100.747 123.364C100.551 123.364 100.382 123.297 100.24 123.163C100.101 123.03 100.032 122.869 100.032 122.682C100.032 122.494 100.101 122.334 100.24 122.2C100.382 122.067 100.551 122 100.747 122C100.943 122 101.111 122.067 101.25 122.2C101.392 122.334 101.463 122.494 101.463 122.682C101.463 122.869 101.392 123.03 101.25 123.163C101.111 123.297 100.943 123.364 100.747 123.364ZM105.503 131.136C104.889 131.136 104.361 130.991 103.918 130.702C103.474 130.412 103.134 130.013 102.895 129.504C102.656 128.996 102.537 128.415 102.537 127.761C102.537 127.097 102.659 126.51 102.903 126.001C103.151 125.49 103.494 125.091 103.935 124.804C104.378 124.514 104.895 124.369 105.486 124.369C105.946 124.369 106.361 124.455 106.73 124.625C107.099 124.795 107.402 125.034 107.638 125.341C107.874 125.648 108.02 126.006 108.077 126.415H107.071C106.994 126.116 106.824 125.852 106.56 125.622C106.298 125.389 105.946 125.273 105.503 125.273C105.111 125.273 104.767 125.375 104.472 125.58C104.179 125.781 103.95 126.067 103.785 126.436C103.624 126.803 103.543 127.233 103.543 127.727C103.543 128.233 103.622 128.673 103.781 129.048C103.943 129.423 104.17 129.714 104.463 129.922C104.759 130.129 105.105 130.233 105.503 130.233C105.764 130.233 106.001 130.188 106.214 130.097C106.428 130.006 106.608 129.875 106.756 129.705C106.903 129.534 107.009 129.33 107.071 129.091H108.077C108.02 129.477 107.879 129.825 107.655 130.135C107.433 130.442 107.139 130.686 106.773 130.868C106.409 131.047 105.986 131.136 105.503 131.136ZM113.943 125.92L113.04 126.176C112.983 126.026 112.899 125.879 112.788 125.737C112.68 125.592 112.533 125.473 112.345 125.379C112.158 125.286 111.918 125.239 111.625 125.239C111.224 125.239 110.891 125.331 110.624 125.516C110.359 125.697 110.227 125.929 110.227 126.21C110.227 126.46 110.318 126.658 110.5 126.803C110.682 126.947 110.966 127.068 111.352 127.165L112.324 127.403C112.909 127.545 113.345 127.763 113.632 128.055C113.919 128.345 114.063 128.719 114.063 129.176C114.063 129.551 113.955 129.886 113.739 130.182C113.526 130.477 113.227 130.71 112.844 130.881C112.46 131.051 112.014 131.136 111.506 131.136C110.838 131.136 110.286 130.991 109.848 130.702C109.411 130.412 109.134 129.989 109.017 129.432L109.972 129.193C110.063 129.545 110.234 129.81 110.487 129.986C110.743 130.162 111.077 130.25 111.489 130.25C111.957 130.25 112.33 130.151 112.605 129.952C112.884 129.75 113.023 129.509 113.023 129.227C113.023 129 112.943 128.81 112.784 128.656C112.625 128.5 112.381 128.384 112.051 128.307L110.96 128.051C110.361 127.909 109.92 127.689 109.639 127.391C109.361 127.089 109.222 126.713 109.222 126.261C109.222 125.892 109.325 125.565 109.533 125.281C109.743 124.997 110.028 124.774 110.389 124.612C110.753 124.45 111.165 124.369 111.625 124.369C112.273 124.369 112.781 124.511 113.151 124.795C113.523 125.08 113.787 125.455 113.943 125.92ZM121.318 124.455V125.307H117.926V124.455H121.318ZM118.915 122.886H119.92V129.125C119.92 129.409 119.961 129.622 120.044 129.764C120.129 129.903 120.237 129.997 120.368 130.045C120.501 130.091 120.642 130.114 120.79 130.114C120.9 130.114 120.991 130.108 121.062 130.097C121.133 130.082 121.19 130.071 121.233 130.062L121.437 130.966C121.369 130.991 121.274 131.017 121.152 131.043C121.03 131.071 120.875 131.085 120.687 131.085C120.403 131.085 120.125 131.024 119.852 130.902C119.582 130.78 119.358 130.594 119.179 130.344C119.003 130.094 118.915 129.778 118.915 129.398V122.886ZM125.18 131.136C124.589 131.136 124.07 130.996 123.624 130.714C123.181 130.433 122.834 130.04 122.584 129.534C122.337 129.028 122.214 128.437 122.214 127.761C122.214 127.08 122.337 126.484 122.584 125.976C122.834 125.467 123.181 125.072 123.624 124.791C124.07 124.51 124.589 124.369 125.18 124.369C125.77 124.369 126.287 124.51 126.731 124.791C127.177 125.072 127.523 125.467 127.77 125.976C128.02 126.484 128.145 127.08 128.145 127.761C128.145 128.437 128.02 129.028 127.77 129.534C127.523 130.04 127.177 130.433 126.731 130.714C126.287 130.996 125.77 131.136 125.18 131.136ZM125.18 130.233C125.628 130.233 125.998 130.118 126.287 129.888C126.577 129.658 126.792 129.355 126.931 128.98C127.07 128.605 127.14 128.199 127.14 127.761C127.14 127.324 127.07 126.916 126.931 126.538C126.792 126.161 126.577 125.855 126.287 125.622C125.998 125.389 125.628 125.273 125.18 125.273C124.731 125.273 124.361 125.389 124.072 125.622C123.782 125.855 123.567 126.161 123.428 126.538C123.289 126.916 123.219 127.324 123.219 127.761C123.219 128.199 123.289 128.605 123.428 128.98C123.567 129.355 123.782 129.658 124.072 129.888C124.361 130.118 124.731 130.233 125.18 130.233ZM131.912 131.136C131.367 131.136 130.885 130.999 130.468 130.723C130.05 130.445 129.723 130.053 129.487 129.547C129.252 129.038 129.134 128.438 129.134 127.744C129.134 127.057 129.252 126.46 129.487 125.955C129.723 125.449 130.051 125.058 130.472 124.783C130.892 124.507 131.378 124.369 131.929 124.369C132.355 124.369 132.692 124.44 132.939 124.582C133.189 124.722 133.38 124.881 133.51 125.06C133.644 125.236 133.747 125.381 133.821 125.494H133.907V122.273H134.912V131H133.941V129.994H133.821C133.747 130.114 133.642 130.264 133.506 130.446C133.37 130.625 133.175 130.786 132.922 130.928C132.669 131.067 132.333 131.136 131.912 131.136ZM132.049 130.233C132.452 130.233 132.793 130.128 133.071 129.918C133.35 129.705 133.561 129.411 133.706 129.036C133.851 128.658 133.924 128.222 133.924 127.727C133.924 127.239 133.853 126.811 133.71 126.445C133.568 126.075 133.358 125.788 133.08 125.584C132.801 125.376 132.458 125.273 132.049 125.273C131.622 125.273 131.267 125.382 130.983 125.601C130.702 125.817 130.49 126.111 130.348 126.483C130.209 126.852 130.139 127.267 130.139 127.727C130.139 128.193 130.21 128.616 130.353 128.997C130.497 129.375 130.71 129.676 130.992 129.901C131.276 130.122 131.628 130.233 132.049 130.233ZM138.58 131.153C138.165 131.153 137.789 131.075 137.451 130.919C137.113 130.76 136.844 130.531 136.645 130.233C136.446 129.932 136.347 129.568 136.347 129.142C136.347 128.767 136.421 128.463 136.569 128.23C136.716 127.994 136.914 127.81 137.161 127.676C137.408 127.543 137.681 127.443 137.979 127.378C138.28 127.31 138.583 127.256 138.887 127.216C139.284 127.165 139.607 127.126 139.854 127.101C140.104 127.072 140.286 127.026 140.399 126.96C140.516 126.895 140.574 126.781 140.574 126.619V126.585C140.574 126.165 140.459 125.838 140.229 125.605C140.002 125.372 139.657 125.256 139.194 125.256C138.713 125.256 138.337 125.361 138.064 125.571C137.792 125.781 137.6 126.006 137.489 126.244L136.534 125.903C136.705 125.506 136.932 125.196 137.216 124.974C137.503 124.75 137.816 124.594 138.154 124.506C138.495 124.415 138.83 124.369 139.159 124.369C139.37 124.369 139.611 124.395 139.884 124.446C140.159 124.494 140.425 124.595 140.681 124.749C140.939 124.902 141.154 125.134 141.324 125.443C141.495 125.753 141.58 126.168 141.58 126.688V131H140.574V130.114H140.523C140.455 130.256 140.341 130.408 140.182 130.57C140.023 130.732 139.811 130.869 139.547 130.983C139.283 131.097 138.961 131.153 138.58 131.153ZM138.733 130.25C139.131 130.25 139.466 130.172 139.739 130.016C140.015 129.859 140.222 129.658 140.361 129.411C140.503 129.163 140.574 128.903 140.574 128.631V127.71C140.532 127.761 140.438 127.808 140.293 127.851C140.151 127.891 139.986 127.926 139.799 127.957C139.614 127.986 139.434 128.011 139.257 128.034C139.084 128.054 138.944 128.071 138.836 128.085C138.574 128.119 138.33 128.175 138.103 128.251C137.878 128.325 137.696 128.437 137.557 128.588C137.421 128.736 137.353 128.937 137.353 129.193C137.353 129.543 137.482 129.807 137.74 129.986C138.002 130.162 138.333 130.25 138.733 130.25ZM143.589 133.455C143.418 133.455 143.266 133.44 143.133 133.412C142.999 133.386 142.907 133.361 142.856 133.335L143.112 132.449C143.356 132.511 143.572 132.534 143.759 132.517C143.947 132.5 144.113 132.416 144.258 132.266C144.406 132.118 144.541 131.878 144.663 131.545L144.85 131.034L142.43 124.455H143.521L145.327 129.67H145.396L147.202 124.455H148.293L145.515 131.955C145.39 132.293 145.235 132.572 145.05 132.794C144.866 133.018 144.651 133.185 144.407 133.293C144.166 133.401 143.893 133.455 143.589 133.455Z" fill="#8492A7"/>
<rect x="89" y="55" width="34" height="34" rx="6" fill="#F7F8FA"/>
<path d="M103.727 79.5H108.227C111.977 79.5 113.477 78 113.477 74.25V69.75C113.477 66 111.977 64.5 108.227 64.5H103.727C99.9775 64.5 98.4775 66 98.4775 69.75V74.25C98.4775 78 99.9775 79.5 103.727 79.5Z" stroke="#6D3FF3" stroke-width="1.5" stroke-linecap="round" stroke-linejoin="round"/>
<path d="M98.4775 72.525L102.977 72.51C103.54 72.51 104.17 72.9375 104.38 73.4625L105.235 75.6225C105.43 76.11 105.737 76.11 105.932 75.6225L107.65 71.265C107.815 70.845 108.122 70.83 108.332 71.2275L109.112 72.705C109.345 73.1475 109.945 73.5075 110.44 73.5075H113.485" stroke="#6D3FF3" stroke-width="1.5" stroke-linecap="round" stroke-linejoin="round"/>
<circle cx="105" cy="105" r="85" stroke="#F7F8FA" stroke-width="6"/>
<path d="M190 105C190 93.8376 187.801 82.7846 183.53 72.4719C179.258 62.1592 172.997 52.7889 165.104 44.8959C157.211 37.0029 147.841 30.7419 137.528 26.4702C127.215 22.1986 116.162 20 105 20C93.8376 20 82.7846 22.1986 72.4719 26.4702C62.1592 30.7419 52.7889 37.0029 44.8959 44.8959C37.0029 52.7889 30.7419 62.1592 26.4702 72.4719C22.1986 82.7846 20 93.8376 20 105" stroke="#FEBA68" stroke-width="6" stroke-linecap="round"/>
<circle cx="105" cy="105" r="102" stroke="#F7F8FA" stroke-width="6"/>
<path d="M189.81 48.3319C178.602 31.5581 162.672 18.4845 144.034 10.7643C125.396 3.04419 104.887 1.02425 85.1007 4.95995C65.3146 8.89564 47.14 18.6102 32.875 32.8752" stroke="#FD718A" stroke-width="6" stroke-linecap="round"/>
</svg>
